<svg width="44" height="44" viewBox="0 0 44 44" fill="none" xmlns="http://www.w3.org/2000/svg">
<path fill-rule="evenodd" clip-rule="evenodd" d="M0.606827 0.670633C0.093499 1.23787 0 2.27883 0 7.43233C0 11.506 0.134932 13.607 0.407729 13.7753C1.23089 14.2842 1.45565 12.8905 1.46115 7.24167L1.46665 1.46667H7.33326H13.1999V22V42.5333H7.33326H1.46665V29.1947C1.46665 18.4837 1.36985 15.7762 0.97459 15.448C0.703993 15.2236 0.373996 15.1481 0.241264 15.2808C0.108532 15.4136 0 21.6568 0 29.1544C0 41.895 0.0439996 42.8259 0.670627 43.3932C1.26682 43.9329 2.72614 44 13.8705 44C24.3354 44 26.3997 43.9157 26.3997 43.4892C26.3997 42.6624 25.5267 42.5333 19.9263 42.5333C15.2462 42.5333 14.6269 42.4633 14.7314 41.9456C14.83 41.455 15.4889 41.3486 18.6998 41.3039L22.5498 41.25L22.6568 39.0368C22.7404 37.3102 22.9219 36.7253 23.4818 36.3755C24.166 35.948 24.1998 36.0356 24.1998 38.2404C24.1998 39.5505 24.3904 40.744 24.6397 40.9933C25.2341 41.5877 31.232 41.5877 31.8263 40.9933C32.1112 40.7084 32.2663 39.2297 32.2663 36.7976C32.2663 33.473 32.1831 32.9831 31.5422 32.5343C30.8481 32.0481 30.8716 32.0016 32.1046 31.4134C33.0943 30.9415 34.4458 30.8 37.9621 30.8H42.5329V36.659V42.5179L35.2961 42.6173C28.7412 42.7071 28.0475 42.7772 27.9361 43.3583C27.8217 43.9527 28.3665 44 35.2994 44C42.0867 44 42.8427 43.9373 43.3927 43.3294C43.9042 42.7643 43.9996 41.7373 43.9996 36.7994C43.9996 29.3319 44.1404 29.5592 39.4163 29.3887L35.8732 29.2604L39.0199 27.4344C41.2305 26.1518 42.2322 25.348 42.3862 24.7342C42.5505 24.0794 41.9814 22.7751 40.1195 19.5382C36.795 13.7595 36.3843 13.2 35.4688 13.2C35.039 13.2 33.2182 14.0353 31.4223 15.0564C29.6267 16.0776 28.0875 16.8432 28.0021 16.7578C27.9166 16.6723 28.687 15.1749 29.7136 13.4303C32.4009 8.86453 32.4082 8.8836 26.5831 5.39697C23.9614 3.82763 21.4384 2.44677 20.9768 2.32833C19.8005 2.02693 19.0093 2.8589 16.7646 6.75767L14.8498 10.0833L14.6665 5.64593C14.543 2.65723 14.3189 1.01127 13.9801 0.604267C13.5493 0.0872667 12.5927 0 7.34536 0C1.87071 0 1.14876 0.0718667 0.606827 0.670633ZM3.095 3.40707C2.99014 3.68097 2.952 5.46003 3.0103 7.36083L3.11664 10.8167L6.59993 10.9241C12.0397 11.092 11.7779 11.3025 11.6544 6.86473L11.5499 3.11667L7.41796 3.0129C4.20269 2.93223 3.24387 3.0195 3.095 3.40707ZM25.4486 6.21317C27.8451 7.61383 29.9674 8.921 30.1646 9.11827C30.3982 9.35183 27.7934 14.1379 22.6865 22.858C14.9019 36.15 14.8491 36.2281 14.738 34.6214C14.6519 33.3725 14.8275 32.7312 15.508 31.8102C16.4239 30.5697 18.6998 26.6402 18.6998 26.2988C18.6998 26.1914 17.7923 25.5911 16.6832 24.9652C15.0548 24.046 14.6665 23.6452 14.6665 22.8818V21.9369L17.0531 23.2716C18.3654 24.0057 19.5875 24.5146 19.7683 24.4028C20.1067 24.1938 23.4664 18.608 23.4664 18.2545C23.4664 17.9773 16.641 13.9333 16.1731 13.9333C15.9623 13.9333 15.5439 14.3869 15.2429 14.9417L14.6959 15.95L14.6812 14.4221C14.6695 13.1857 15.1303 12.1026 17.1019 8.73877C19.9025 3.95927 20.1085 3.66667 20.6736 3.66667C20.9035 3.66667 23.0521 4.8125 25.4486 6.21317ZM10.5584 6.875L10.4499 9.35L7.24159 9.45597L4.03329 9.56193V6.98097V4.4H7.35013H10.6666L10.5584 6.875ZM19.9927 6.94833C19.685 7.54343 19.4331 8.12093 19.4331 8.23167C19.4331 8.62033 20.2977 8.4282 20.8708 7.91193C21.3783 7.45507 21.7442 7.568 23.832 8.8253C25.1421 9.61437 26.2604 10.3983 26.3165 10.567C26.4676 11.0202 24.5452 14.3312 24.012 14.5358C23.3322 14.7965 18.8575 11.9126 19.0184 11.3175C19.5145 9.48347 18.6463 8.96427 17.8048 10.5919C17.4902 11.1995 17.2332 11.8646 17.2332 12.0699C17.2332 12.5737 24.1129 16.5968 24.5319 16.3379C24.8887 16.1176 28.233 10.5347 28.233 10.1596C28.233 9.845 21.5165 5.86667 20.9849 5.86667C20.7469 5.86667 20.3003 6.3536 19.9927 6.94833ZM3.18923 12.6999C3.04844 12.8403 2.9333 14.5779 2.9333 16.5612V20.1667H7.34609H11.7589L11.6544 16.4083L11.5499 12.65L7.49752 12.547C5.26858 12.4905 3.32967 12.5591 3.18923 12.6999ZM10.5584 16.4083L10.4499 18.8833H7.33326H4.21662L4.10809 16.4083L3.99993 13.9333H7.33326H10.6666L10.5584 16.4083ZM38.4552 19.2482C39.8915 21.7679 41.0662 24.0387 41.0662 24.2946C41.0662 24.8351 14.9059 40.0206 14.7358 39.5787C14.5235 39.0269 15.7823 37.0333 16.3429 37.0333C16.9164 37.0333 22.7331 33.8096 22.7331 33.4921C22.7331 33.3945 22.197 32.3437 21.5414 31.1568C20.4433 29.168 20.3964 28.9524 20.9431 28.4027C21.4901 27.8527 21.6419 27.9954 22.8974 30.2405C23.6461 31.5795 24.3728 32.6242 24.5121 32.5622C25.7104 32.0313 30.4638 29.2138 30.638 28.9315C30.8782 28.5432 26.9043 21.2667 26.4522 21.2667C26.3026 21.2667 25.9847 21.4617 25.746 21.7004C25.0093 22.4371 24.8282 21.7408 25.4724 20.6499C26.1082 19.5738 34.1169 14.6733 35.2469 14.6689C35.629 14.6674 36.7862 16.3189 38.4552 19.2482ZM21.6247 18.8232C21.6203 19.0579 21.0813 20.1095 20.4272 21.1596L19.2377 23.0696L16.9523 21.7213C14.4304 20.2341 14.1833 19.6152 15.2623 17.49C16.3502 15.3479 16.3458 15.3483 19.0863 16.9283C20.4869 17.736 21.6294 18.5885 21.6247 18.8232ZM31.2734 18.4565C29.82 19.3127 28.5253 20.119 28.3966 20.2477C28.1568 20.4875 32.1783 27.8667 32.5487 27.8667C33.161 27.8667 38.8663 24.3657 38.8663 23.9899C38.8663 23.0743 35.0361 16.867 34.481 16.8832C34.1704 16.8923 32.7269 17.6004 31.2734 18.4565ZM35.9014 20.9323C36.7253 22.3615 37.3996 23.5833 37.3996 23.6471C37.3996 23.8267 33.414 26.0337 33.0968 26.03C32.8141 26.0264 30.0664 21.4078 30.0664 20.9363C30.0664 20.6921 33.6644 18.4327 34.1598 18.366C34.2936 18.348 35.0772 19.503 35.9014 20.9323ZM3.01214 25.7583L3.11664 29.5167H7.33326H11.5499L11.6544 25.7583L11.7589 22H7.33326H2.90764L3.01214 25.7583ZM10.5584 25.7583L10.6666 28.2333H7.35013H4.03329V25.9112C4.03329 24.6338 4.14952 23.4729 4.29142 23.331C4.43332 23.1887 5.87687 23.1202 7.49972 23.1781L10.4499 23.2833L10.5584 25.7583ZM27.7883 25.7492L29.3154 28.3987L27.2159 29.5948C26.0613 30.2526 25.0313 30.793 24.9272 30.7952C24.8231 30.7978 24.1807 29.8687 23.4998 28.7305C21.9968 26.2174 22.1882 25.186 24.389 23.9393C25.1923 23.4843 25.9425 23.1092 26.0554 23.1059C26.1687 23.1026 26.9486 24.292 27.7883 25.7492ZM16.8665 26.8723C16.8665 27.2448 15.0299 30.4333 14.815 30.4333C14.7333 30.4333 14.6665 29.2692 14.6665 27.8458V25.2586L15.7665 25.9083C16.3715 26.2658 16.8665 26.6996 16.8665 26.8723ZM20.8917 32.85C20.8987 33.1984 17.6754 35.2 17.1074 35.2C16.9923 35.2 17.4968 34.1942 18.229 32.9652L19.5604 30.73L20.2218 31.5902C20.5859 32.0632 20.8873 32.63 20.8917 32.85ZM33.8969 32.7353C33.7924 33.0077 33.7539 35.035 33.8115 37.2401L33.9163 41.25H37.583H41.2496V36.85V32.45L37.6684 32.3451C34.9243 32.2645 34.0425 32.3558 33.8969 32.7353ZM30.7997 36.85V39.9667H28.233H25.6664V37.5778C25.6664 35.2766 25.71 35.1626 26.8581 34.4626C27.5133 34.063 28.6686 33.7355 29.4247 33.7348L30.7997 33.7333V36.85ZM40.3329 36.85V39.9667H37.7663H35.1996V36.85V33.7333H37.7663H40.3329V36.85ZM5.56374 35.6818C4.50995 36.8038 4.55652 37.9566 5.70161 39.1017C6.42943 39.8295 6.8566 39.9832 7.62659 39.7943C8.17108 39.6609 8.81201 39.3565 9.05071 39.1175C9.28977 38.8788 9.5941 38.2378 9.72757 37.6933C9.9164 36.9233 9.76277 36.4962 9.03494 35.7683C7.87262 34.606 6.60433 34.5741 5.56374 35.6818ZM8.24992 37.4C8.24992 38.1333 8.06658 38.3167 7.33326 38.3167C6.59993 38.3167 6.39277 38.1095 6.2978 37.2812C6.19 36.3396 6.27287 36.2567 7.21446 36.3645C8.04275 36.4595 8.24992 36.6667 8.24992 37.4ZM21.1502 39.8387C21.0556 39.9329 20.1907 39.959 19.2274 39.8966L17.4759 39.7833L19.2795 38.7919L21.0831 37.8004L21.2023 38.7339C21.2679 39.2469 21.2445 39.7441 21.1502 39.8387Z" fill="#B11227"/>
</svg>
