<svg width="46" height="56" viewBox="0 0 46 56" fill="none" xmlns="http://www.w3.org/2000/svg">
<path fill-rule="evenodd" clip-rule="evenodd" d="M7.78692 0.19428C7.41371 0.441673 5.95602 2.14346 5.73699 2.5875C5.43844 3.19242 5.61233 3.62356 6.45454 4.36639C6.86101 4.72491 7.31735 5.11689 7.46877 5.23752C7.77579 5.48218 7.7998 5.41776 7.03918 6.39071C6.65728 6.87926 6.54363 7.12403 6.50278 7.54587C6.4247 8.3528 6.74163 8.89811 7.79991 9.77788C9.10729 10.8648 9.32081 10.9687 10.154 10.9229L10.8558 10.8844L12.4109 12.1863C13.2662 12.9025 13.966 13.5311 13.966 13.5833C13.966 13.6356 12.233 15.57 10.1149 17.882C7.93922 20.2571 6.23232 22.2109 6.19124 22.3732C6.03476 22.9923 6.96871 23.566 7.47318 23.1606C7.92975 22.7938 15.4198 14.5044 15.5118 14.2642C15.6698 13.8515 15.6401 13.1584 15.4487 12.7908C15.3557 12.6122 14.5602 11.8548 13.681 11.1078C12.8017 10.3607 12.0782 9.7162 12.0732 9.67551C12.0523 9.50632 15.7793 5.24802 15.9059 5.29625C15.9811 5.32491 17.483 6.56012 19.2434 8.0411C21.6042 10.0272 22.5238 10.8684 22.7476 11.2466L23.0511 11.7593L23.0803 25.541L23.1095 39.3226L22.542 39.5227C21.7817 39.7909 20.9961 40.5736 20.7508 41.3071C20.5854 41.8018 20.5694 42.4844 20.5973 47.8629C20.6144 51.1649 20.6532 53.9351 20.6835 54.019C20.7197 54.1195 20.6169 54.2044 20.382 54.2679C20.1858 54.321 16.4692 54.3507 12.1228 54.3342L4.22016 54.304L3.67241 54.0363C2.97445 53.6952 2.30799 53.0333 1.96 52.3354L1.68734 51.7885L1.65695 42.1196C1.62336 31.4414 1.63107 31.2919 2.30414 29.6863C2.75366 28.6138 3.2818 27.8235 4.36519 26.6015C5.04255 25.8376 5.26632 25.5079 5.26632 25.2739C5.26632 24.8109 4.93342 24.4644 4.48864 24.4644C4.16477 24.4644 4.00652 24.5822 3.25207 25.3849C1.69064 27.0463 0.782242 28.6312 0.23262 30.6523C0.0657848 31.2657 0.0427693 32.3632 0.00918188 41.2682C-0.0158159 47.8671 0.0102829 51.4074 0.086818 51.8183C0.45683 53.8066 2.10713 55.4769 4.10948 55.8898C4.48665 55.9675 7.33773 55.9959 12.7062 55.9753C20.2231 55.9464 20.7749 55.9313 21.304 55.7406C21.8635 55.5388 21.8761 55.5391 22.492 55.7679C23.1091 55.9973 23.2001 55.9992 33.277 55.9992C44.8755 55.9992 44.0916 56.0613 45.0949 55.0647C46.0405 54.1255 46.0242 54.2663 45.9878 47.4005C45.9569 41.5659 45.9542 41.5033 45.7141 41.0576C45.3232 40.332 44.9416 39.9532 44.2722 39.6268L43.644 39.3204L34.2027 39.289L24.7613 39.2576L24.7321 25.3934L24.7029 11.5291L24.2965 10.7146C23.8034 9.72648 23.7208 9.64609 19.8677 6.41007L16.7944 3.82884L16.7768 3.2424C16.7538 2.47485 16.5338 2.14685 15.4081 1.20102C14.292 0.263182 14.0072 0.111487 13.3623 0.111487C12.6212 0.111487 12.1996 0.334929 11.543 1.07591L10.9558 1.73836L10.286 1.15684C8.94045 -0.0113347 8.40691 -0.21684 7.78692 0.19428ZM14.3479 2.47048C14.8041 2.86563 15.1773 3.23409 15.1773 3.28932C15.1773 3.38437 14.6176 4.06005 11.4882 7.74295C10.7131 8.6552 10.0867 9.29819 9.97318 9.2983C9.71219 9.29862 8.18457 7.96224 8.18457 7.73366C8.18457 7.45739 13.0824 1.75203 13.3195 1.75203C13.4289 1.75203 13.8917 2.07532 14.3479 2.47048ZM9.26366 2.44029L9.90237 3.01076L9.36475 3.60682L8.82724 4.20289L8.53641 3.97573C7.7661 3.37398 7.46206 3.05407 7.53914 2.92622C7.74342 2.58706 8.4079 1.86183 8.51075 1.86566C8.57363 1.86796 8.91248 2.12662 9.26366 2.44029ZM31.5148 21.2222C30.735 21.5291 30.0072 22.1975 29.6377 22.9463C29.218 23.7964 29.2049 25.0423 29.607 25.868C29.945 26.5618 30.611 27.2258 31.3132 27.5689C32.1287 27.9675 33.3866 27.9519 34.2463 27.5326C34.9314 27.1985 35.5148 26.6234 35.9024 25.9002C36.2701 25.2141 36.2665 23.6757 35.8955 22.9697C35.5401 22.2935 34.9392 21.692 34.2836 21.3565C33.5209 20.966 32.3142 20.9075 31.5148 21.2222ZM33.7583 22.9312C34.3323 23.3567 34.5039 23.7009 34.5039 24.4268C34.5039 25.2308 34.2317 25.6956 33.563 26.0345C33.0022 26.3186 32.4996 26.3078 31.9116 25.9989C31.3699 25.7144 30.9249 25.0169 30.9249 24.4522C30.9249 23.9017 31.3632 23.1673 31.8609 22.8835C32.4065 22.5726 33.3051 22.5951 33.7583 22.9312ZM27.8808 26.6874C27.2276 26.9491 27.0942 27.8222 27.6265 28.3509C27.9239 28.6463 28.0149 28.6772 28.4238 28.6228C29.1504 28.526 29.5421 27.8803 29.27 27.2278C29.0509 26.7026 28.4379 26.464 27.8808 26.6874ZM10.4412 30.8534C7.00714 31.226 4.74797 34.8258 5.94038 38.0253C7.29346 41.6556 11.7623 42.8081 14.724 40.2903C16.5547 38.734 17.0777 35.6574 15.8646 33.5802C14.7456 31.6637 12.6559 30.6131 10.4412 30.8534ZM34.2297 31.5351C33.6751 31.7104 32.9475 32.4765 32.7924 33.0482C32.3789 34.5734 33.4789 36.022 35.0402 36.0082C36.3776 35.9962 37.312 35.0416 37.312 33.687C37.312 32.1204 35.7739 31.0466 34.2297 31.5351ZM12.8074 32.8617C13.8469 33.3668 14.6124 34.3917 14.8321 35.5722C15.1399 37.2258 14.2507 38.9044 12.6623 39.6682C12.1342 39.9222 11.8957 39.9683 11.1028 39.97C10.3191 39.9716 10.0647 39.9248 9.53952 39.6822C8.73782 39.312 7.97082 38.5495 7.60224 37.756C7.23961 36.9755 7.20018 35.7985 7.50721 34.917C7.75784 34.1973 8.63233 33.2242 9.35561 32.8602C10.3932 32.338 11.7308 32.3386 12.8074 32.8617ZM35.4153 33.202C35.8905 33.5325 35.6426 34.3714 35.0698 34.3714C34.4303 34.3714 34.1186 33.6877 34.5589 33.2504C34.8235 32.9876 35.086 32.9728 35.4153 33.202ZM43.6698 41.1749C44.3335 41.5736 44.3598 41.734 44.3598 45.3765V48.6655L37.0822 48.6958L29.8045 48.7262L29.5388 49.0331C29.3926 49.2018 29.273 49.4328 29.273 49.5464C29.273 49.6601 29.3926 49.8911 29.5388 50.0598L29.8045 50.3667L37.0822 50.3971L44.3598 50.4274V51.7951C44.3598 53.3682 44.234 53.8006 43.6782 54.1371C43.3196 54.3543 43.1496 54.3579 33.2813 54.3583L23.2489 54.3587L22.8762 54.1093C22.2981 53.7224 22.2286 53.483 22.2268 51.8705L22.2252 50.4214H24.2109C26.4276 50.4214 26.8985 50.3219 27.0236 49.8271C27.0625 49.6728 27.0625 49.4201 27.0236 49.2658C26.8985 48.771 26.4276 48.6715 24.2109 48.6715H22.2252V45.3303C22.2252 41.3659 22.2312 41.3422 23.32 41.0085C23.475 40.9611 28.0369 40.9309 33.4577 40.9416C43.0267 40.9604 43.324 40.9672 43.6698 41.1749ZM37.4274 41.9779C36.5752 42.8243 37.5363 44.1493 38.6046 43.6007C39.5098 43.1358 39.2506 41.8426 38.2247 41.706C37.8158 41.6515 37.7248 41.6825 37.4274 41.9779ZM30.1161 43.2176C29.8429 43.3753 29.5998 43.9821 29.6797 44.3068C29.8316 44.9234 30.4053 45.2506 30.9955 45.0572C32.0817 44.7012 31.8527 43.0875 30.7172 43.0969C30.4983 43.0988 30.2278 43.153 30.1161 43.2176ZM33.9532 45.0522C33.4077 45.2842 33.167 45.8862 33.3991 46.4378C33.8202 47.4389 35.3298 47.1261 35.3298 46.0378C35.3298 45.3135 34.5879 44.7823 33.9532 45.0522Z" fill="#B11227"/>
</svg>
