<svg width="52" height="56" viewBox="0 0 52 56" fill="none" xmlns="http://www.w3.org/2000/svg">
<path fill-rule="evenodd" clip-rule="evenodd" d="M4.39094 0.257141C4.16576 0.490984 3.9565 1.75459 2.07179 14.2571L0 28L2.07179 41.7429C3.9565 54.2454 4.16576 55.509 4.39094 55.7429L4.63854 56H7.6301C10.487 56 10.6351 55.9898 10.9171 55.7733C11.1033 55.6304 11.2125 55.4396 11.2125 55.2571C11.2125 55.098 10.2978 48.8999 9.18001 41.4837L7.14746 27.9997L8.67272 17.8826C9.78628 10.4964 10.1701 7.69344 10.0942 7.49875C9.88929 6.97298 9.26699 6.85027 8.81327 7.24609C8.54012 7.48442 8.48239 7.81736 6.99099 17.7453L5.45082 27.9985L7.38911 40.8781C8.45516 47.9619 9.35431 53.8931 9.38726 54.0586L9.44711 54.3594L7.55567 54.359L5.66423 54.3587L3.68155 41.1794L1.69877 28L3.68155 14.8206L5.66423 1.64128L7.55477 1.64095L9.44521 1.64062L9.38221 1.94141C9.17553 2.92895 9.04876 4.40048 9.14695 4.67283C9.34018 5.20909 10.2749 5.29572 10.5454 4.80255C10.6779 4.56083 11.2061 1.38141 11.2101 0.800953C11.2118 0.553984 11.1269 0.387734 10.9171 0.226734C10.6351 0.0101719 10.487 0 7.6301 0H4.63854L4.39094 0.257141ZM15.7177 7.13617C15.5291 7.22477 14.826 8.49177 13.1117 11.8322C11.8205 14.3483 10.7641 16.4986 10.7641 16.6106C10.7641 16.7226 10.8687 16.9439 10.9965 17.1024C11.2526 17.4203 11.7974 17.4903 12.1244 17.2475C12.4208 17.0273 16.9288 8.13848 16.9288 7.77405C16.9288 7.55792 16.8325 7.37953 16.6335 7.22673C16.3063 6.9755 16.1025 6.95538 15.7177 7.13617ZM17.209 14.4992C15.5919 15.0346 15.1748 15.3291 15.3002 15.8475C15.3856 16.201 15.7522 16.5156 16.0786 16.5156C16.5031 16.5156 19.3317 15.5446 19.4786 15.3484C19.7257 15.0187 19.6509 14.478 19.3235 14.2267C19.1611 14.102 18.9467 14.0037 18.8471 14.0084C18.7476 14.013 18.0104 14.2338 17.209 14.4992ZM24.3429 15.8676C23.3315 16.0616 22.1116 17.0765 21.8446 17.9461L21.7173 18.3608L18.334 18.3952L14.9506 18.4297L14.2913 18.7589C12.8443 19.4815 12.2144 21.1414 12.8352 22.596C12.976 22.9259 12.9705 22.9373 12.61 23.0645C12.0958 23.2459 11.3482 23.9854 11.0653 24.5923C10.7446 25.2801 10.7427 26.341 11.0609 27.0233C11.3399 27.6215 11.9841 28.2585 12.5613 28.507L12.9809 28.6876L12.8068 29.082C12.5505 29.6622 12.5773 30.7872 12.8622 31.4077C13.14 32.0126 13.8871 32.7533 14.4034 32.9355L14.773 33.0659L14.5993 33.4587C14.3454 34.0339 14.3711 35.1632 14.6522 35.7754C14.9443 36.4116 15.5851 37.0397 16.2463 37.3381C16.7296 37.5563 16.9397 37.5703 19.7309 37.5703C23.0535 37.5703 23.12 37.5581 23.9953 36.788C25.2033 35.7254 25.3503 33.713 24.3 32.6211L24.0632 32.375L24.3 32.1289C25.2219 31.1706 25.2219 29.2044 24.3 28.2461L24.0632 28L24.2929 27.7539C24.4192 27.6185 24.5811 27.3971 24.6526 27.2617C24.7241 27.1263 24.8485 27.0156 24.9289 27.0156C25.2509 27.0156 26.4637 26.325 26.802 25.9491C27.4717 25.2048 27.6918 24.5517 27.7673 23.0846L27.8353 21.7656H28.8706C29.6913 21.7656 29.9563 21.7258 30.1492 21.5733C30.4812 21.3111 30.4911 20.7326 30.169 20.4183C29.9396 20.1945 29.8213 20.1797 28.2581 20.1797C26.0268 20.1797 26.1589 20.0462 26.1018 22.3579C26.0594 24.0669 26.045 24.1607 25.7625 24.5775C25.2204 25.3766 24.0643 25.6441 23.5333 25.093C23.2643 24.8137 23.2613 24.786 23.2259 22.2766C23.2063 20.8826 23.2222 19.4862 23.2613 19.1734C23.3526 18.4425 23.6958 17.9465 24.3273 17.6325C24.829 17.383 24.8452 17.3822 28.9219 17.4177C32.6075 17.45 33.0686 17.474 33.5735 17.6603C34.0072 17.8205 34.4634 18.1809 35.5925 19.2555C37.2195 20.8042 37.8389 21.2365 38.8813 21.5508C39.5516 21.7529 39.9465 21.7656 45.5703 21.7656H51.5469L51.7792 21.4774C52.1319 21.0399 52.0474 20.4903 51.5943 20.2746C51.4847 20.2223 48.6966 20.1551 45.3985 20.125L39.4019 20.0703L38.8587 19.8093C38.5279 19.6504 37.7139 18.9815 36.7765 18.0982C34.3111 15.7748 34.2232 15.7495 28.6978 15.7639C26.5709 15.7695 24.6112 15.8161 24.3429 15.8676ZM21.5435 22.5586C21.5888 25.4231 21.6309 25.5985 22.4628 26.3863C22.9615 26.8585 22.9263 26.9752 22.2385 27.1309C21.6748 27.2585 14.2028 27.2591 13.6394 27.1316C13.0935 27.0079 12.7006 26.6498 12.5411 26.1306C12.4363 25.7891 12.45 25.6586 12.6271 25.3107C13.0578 24.4646 13.1086 24.4521 16.3855 24.3906C19.1067 24.3395 19.3117 24.3218 19.46 24.1236C19.6965 23.8074 19.6585 23.2565 19.3833 23.013C19.175 22.8289 18.9089 22.7983 17.0941 22.75C15.1191 22.6974 15.0296 22.6852 14.755 22.4331C13.9733 21.7155 14.2267 20.5358 15.2476 20.1385C15.4075 20.0763 16.8108 20.0266 18.5155 20.0225L21.5033 20.0156L21.5435 22.5586ZM22.9366 29.2469C23.2723 29.5745 23.3177 29.6866 23.3177 30.1875C23.3177 30.6855 23.2715 30.8013 22.9467 31.1183C22.4487 31.6042 22.1921 31.6309 18.4219 31.5895C15.4377 31.5567 15.246 31.5422 14.9473 31.3288C14.7733 31.2047 14.5362 30.9169 14.4205 30.6893C14.2412 30.3371 14.229 30.2131 14.3384 29.8568C14.4091 29.6264 14.6213 29.3113 14.8098 29.1565L15.1526 28.875H18.8541H22.5555L22.9366 29.2469ZM22.9366 33.6219C23.2723 33.9495 23.3177 34.0616 23.3177 34.5625C23.3177 35.0605 23.2715 35.1763 22.9467 35.4933C22.4634 35.9649 22.1327 36.0078 19.3185 35.9645C16.7719 35.9253 16.6313 35.8845 16.2138 35.0643C16.0346 34.7121 16.0224 34.5881 16.1318 34.2318C16.2025 34.0014 16.4147 33.6863 16.6032 33.5315L16.946 33.25H19.7508H22.5555L22.9366 33.6219ZM36.7938 33.5373C36.2224 33.6233 35.138 33.8711 34.384 34.088C31.9011 34.8021 30.0219 35.1078 28.1093 35.109C27.6146 35.1093 27.4127 35.1602 27.2407 35.3281C26.9376 35.6239 26.9444 36.2155 27.2541 36.487C27.4645 36.6715 27.6545 36.6929 28.9171 36.6738C30.7403 36.6462 32.0136 36.4425 34.246 35.8213C37.1895 35.0021 37.2046 35.001 44.6493 35.0004C49.4454 35.0001 51.3084 34.9653 51.4865 34.8728C52.0448 34.5826 52.1564 34.1155 51.7792 33.6476L51.5469 33.3594L44.6898 33.3701C39.3467 33.3785 37.6034 33.4154 36.7938 33.5373ZM11.8932 39.7726C11.595 40.1424 11.6004 40.3517 11.9196 40.8089C12.3405 41.412 18.1854 48.719 18.3192 48.8096C18.8582 49.1741 19.5393 48.8608 19.596 48.222C19.6264 47.8811 19.345 47.4919 16.3617 43.7485C14.5646 41.4935 13.0365 39.6122 12.9659 39.568C12.6672 39.3809 12.1256 39.4842 11.8932 39.7726ZM16.5182 39.6459C16.1848 39.8737 16.0934 40.3222 16.3136 40.6501C16.5324 40.9758 19.4437 42.875 19.7243 42.875C19.8346 42.875 20.0578 42.773 20.2202 42.6483C20.5468 42.3977 20.6239 41.8473 20.3754 41.5411C20.0932 41.1932 17.3205 39.4844 17.0384 39.4844C16.8823 39.4844 16.6481 39.5571 16.5182 39.6459Z" fill="#B11227"/>
</svg>
