<svg xmlns="http://www.w3.org/2000/svg">
    <symbol id="icon-damage" width="52" height="56" viewBox="0 0 52 56" fill="none"
        xmlns="http://www.w3.org/2000/svg">
        <path fill-rule="evenodd" clip-rule="evenodd"
            d="M4.39094 0.257141C4.16576 0.490984 3.9565 1.75459 2.07179 14.2571L0 28L2.07179 41.7429C3.9565 54.2454 4.16576 55.509 4.39094 55.7429L4.63854 56H7.6301C10.487 56 10.6351 55.9898 10.9171 55.7733C11.1033 55.6304 11.2125 55.4396 11.2125 55.2571C11.2125 55.098 10.2978 48.8999 9.18001 41.4837L7.14746 27.9997L8.67272 17.8826C9.78628 10.4964 10.1701 7.69344 10.0942 7.49875C9.88929 6.97298 9.26699 6.85027 8.81327 7.24609C8.54012 7.48442 8.48239 7.81736 6.99099 17.7453L5.45082 27.9985L7.38911 40.8781C8.45516 47.9619 9.35431 53.8931 9.38726 54.0586L9.44711 54.3594L7.55567 54.359L5.66423 54.3587L3.68155 41.1794L1.69877 28L3.68155 14.8206L5.66423 1.64128L7.55477 1.64095L9.44521 1.64062L9.38221 1.94141C9.17553 2.92895 9.04876 4.40048 9.14695 4.67283C9.34018 5.20909 10.2749 5.29572 10.5454 4.80255C10.6779 4.56083 11.2061 1.38141 11.2101 0.800953C11.2118 0.553984 11.1269 0.387734 10.9171 0.226734C10.6351 0.0101719 10.487 0 7.6301 0H4.63854L4.39094 0.257141ZM15.7177 7.13617C15.5291 7.22477 14.826 8.49177 13.1117 11.8322C11.8205 14.3483 10.7641 16.4986 10.7641 16.6106C10.7641 16.7226 10.8687 16.9439 10.9965 17.1024C11.2526 17.4203 11.7974 17.4903 12.1244 17.2475C12.4208 17.0273 16.9288 8.13848 16.9288 7.77405C16.9288 7.55792 16.8325 7.37953 16.6335 7.22673C16.3063 6.9755 16.1025 6.95538 15.7177 7.13617ZM17.209 14.4992C15.5919 15.0346 15.1748 15.3291 15.3002 15.8475C15.3856 16.201 15.7522 16.5156 16.0786 16.5156C16.5031 16.5156 19.3317 15.5446 19.4786 15.3484C19.7257 15.0187 19.6509 14.478 19.3235 14.2267C19.1611 14.102 18.9467 14.0037 18.8471 14.0084C18.7476 14.013 18.0104 14.2338 17.209 14.4992ZM24.3429 15.8676C23.3315 16.0616 22.1116 17.0765 21.8446 17.9461L21.7173 18.3608L18.334 18.3952L14.9506 18.4297L14.2913 18.7589C12.8443 19.4815 12.2144 21.1414 12.8352 22.596C12.976 22.9259 12.9705 22.9373 12.61 23.0645C12.0958 23.2459 11.3482 23.9854 11.0653 24.5923C10.7446 25.2801 10.7427 26.341 11.0609 27.0233C11.3399 27.6215 11.9841 28.2585 12.5613 28.507L12.9809 28.6876L12.8068 29.082C12.5505 29.6622 12.5773 30.7872 12.8622 31.4077C13.14 32.0126 13.8871 32.7533 14.4034 32.9355L14.773 33.0659L14.5993 33.4587C14.3454 34.0339 14.3711 35.1632 14.6522 35.7754C14.9443 36.4116 15.5851 37.0397 16.2463 37.3381C16.7296 37.5563 16.9397 37.5703 19.7309 37.5703C23.0535 37.5703 23.12 37.5581 23.9953 36.788C25.2033 35.7254 25.3503 33.713 24.3 32.6211L24.0632 32.375L24.3 32.1289C25.2219 31.1706 25.2219 29.2044 24.3 28.2461L24.0632 28L24.2929 27.7539C24.4192 27.6185 24.5811 27.3971 24.6526 27.2617C24.7241 27.1263 24.8485 27.0156 24.9289 27.0156C25.2509 27.0156 26.4637 26.325 26.802 25.9491C27.4717 25.2048 27.6918 24.5517 27.7673 23.0846L27.8353 21.7656H28.8706C29.6913 21.7656 29.9563 21.7258 30.1492 21.5733C30.4812 21.3111 30.4911 20.7326 30.169 20.4183C29.9396 20.1945 29.8213 20.1797 28.2581 20.1797C26.0268 20.1797 26.1589 20.0462 26.1018 22.3579C26.0594 24.0669 26.045 24.1607 25.7625 24.5775C25.2204 25.3766 24.0643 25.6441 23.5333 25.093C23.2643 24.8137 23.2613 24.786 23.2259 22.2766C23.2063 20.8826 23.2222 19.4862 23.2613 19.1734C23.3526 18.4425 23.6958 17.9465 24.3273 17.6325C24.829 17.383 24.8452 17.3822 28.9219 17.4177C32.6075 17.45 33.0686 17.474 33.5735 17.6603C34.0072 17.8205 34.4634 18.1809 35.5925 19.2555C37.2195 20.8042 37.8389 21.2365 38.8813 21.5508C39.5516 21.7529 39.9465 21.7656 45.5703 21.7656H51.5469L51.7792 21.4774C52.1319 21.0399 52.0474 20.4903 51.5943 20.2746C51.4847 20.2223 48.6966 20.1551 45.3985 20.125L39.4019 20.0703L38.8587 19.8093C38.5279 19.6504 37.7139 18.9815 36.7765 18.0982C34.3111 15.7748 34.2232 15.7495 28.6978 15.7639C26.5709 15.7695 24.6112 15.8161 24.3429 15.8676ZM21.5435 22.5586C21.5888 25.4231 21.6309 25.5985 22.4628 26.3863C22.9615 26.8585 22.9263 26.9752 22.2385 27.1309C21.6748 27.2585 14.2028 27.2591 13.6394 27.1316C13.0935 27.0079 12.7006 26.6498 12.5411 26.1306C12.4363 25.7891 12.45 25.6586 12.6271 25.3107C13.0578 24.4646 13.1086 24.4521 16.3855 24.3906C19.1067 24.3395 19.3117 24.3218 19.46 24.1236C19.6965 23.8074 19.6585 23.2565 19.3833 23.013C19.175 22.8289 18.9089 22.7983 17.0941 22.75C15.1191 22.6974 15.0296 22.6852 14.755 22.4331C13.9733 21.7155 14.2267 20.5358 15.2476 20.1385C15.4075 20.0763 16.8108 20.0266 18.5155 20.0225L21.5033 20.0156L21.5435 22.5586ZM22.9366 29.2469C23.2723 29.5745 23.3177 29.6866 23.3177 30.1875C23.3177 30.6855 23.2715 30.8013 22.9467 31.1183C22.4487 31.6042 22.1921 31.6309 18.4219 31.5895C15.4377 31.5567 15.246 31.5422 14.9473 31.3288C14.7733 31.2047 14.5362 30.9169 14.4205 30.6893C14.2412 30.3371 14.229 30.2131 14.3384 29.8568C14.4091 29.6264 14.6213 29.3113 14.8098 29.1565L15.1526 28.875H18.8541H22.5555L22.9366 29.2469ZM22.9366 33.6219C23.2723 33.9495 23.3177 34.0616 23.3177 34.5625C23.3177 35.0605 23.2715 35.1763 22.9467 35.4933C22.4634 35.9649 22.1327 36.0078 19.3185 35.9645C16.7719 35.9253 16.6313 35.8845 16.2138 35.0643C16.0346 34.7121 16.0224 34.5881 16.1318 34.2318C16.2025 34.0014 16.4147 33.6863 16.6032 33.5315L16.946 33.25H19.7508H22.5555L22.9366 33.6219ZM36.7938 33.5373C36.2224 33.6233 35.138 33.8711 34.384 34.088C31.9011 34.8021 30.0219 35.1078 28.1093 35.109C27.6146 35.1093 27.4127 35.1602 27.2407 35.3281C26.9376 35.6239 26.9444 36.2155 27.2541 36.487C27.4645 36.6715 27.6545 36.6929 28.9171 36.6738C30.7403 36.6462 32.0136 36.4425 34.246 35.8213C37.1895 35.0021 37.2046 35.001 44.6493 35.0004C49.4454 35.0001 51.3084 34.9653 51.4865 34.8728C52.0448 34.5826 52.1564 34.1155 51.7792 33.6476L51.5469 33.3594L44.6898 33.3701C39.3467 33.3785 37.6034 33.4154 36.7938 33.5373ZM11.8932 39.7726C11.595 40.1424 11.6004 40.3517 11.9196 40.8089C12.3405 41.412 18.1854 48.719 18.3192 48.8096C18.8582 49.1741 19.5393 48.8608 19.596 48.222C19.6264 47.8811 19.345 47.4919 16.3617 43.7485C14.5646 41.4935 13.0365 39.6122 12.9659 39.568C12.6672 39.3809 12.1256 39.4842 11.8932 39.7726ZM16.5182 39.6459C16.1848 39.8737 16.0934 40.3222 16.3136 40.6501C16.5324 40.9758 19.4437 42.875 19.7243 42.875C19.8346 42.875 20.0578 42.773 20.2202 42.6483C20.5468 42.3977 20.6239 41.8473 20.3754 41.5411C20.0932 41.1932 17.3205 39.4844 17.0384 39.4844C16.8823 39.4844 16.6481 39.5571 16.5182 39.6459Z"
            fill="#B11227" />
    </symbol>
    <symbol viewBox="0 0 111 33" id="ipos-logo">
        <path
            d="M16.6362 33.0002C25.8242 33.0002 33.2724 25.6926 33.2724 16.6783C33.2724 7.66399 25.8242 0.356445 16.6362 0.356445C7.44829 0.356445 0 7.66399 0 16.6783C0 25.6926 7.44829 33.0002 16.6362 33.0002Z">
        </path>
        <path
            d="M16.6848 8.72604C16.4308 8.73516 16.1776 8.69331 15.9407 8.60306C15.7037 8.5128 15.4881 8.37605 15.3069 8.20117C15.1328 8.03362 14.9955 7.83288 14.9035 7.61131C14.8115 7.38975 14.7667 7.15205 14.7719 6.91285C14.7702 6.67413 14.8166 6.43744 14.9084 6.21636C15.0002 5.99527 15.1356 5.79415 15.3069 5.62454C15.483 5.4409 15.697 5.29625 15.9346 5.20025C16.1722 5.10425 16.428 5.05911 16.6848 5.06786C16.9349 5.05585 17.1845 5.09972 17.4148 5.19615C17.6451 5.29258 17.85 5.43906 18.0142 5.62454C18.3337 5.97986 18.507 6.43907 18.5005 6.91285C18.5135 7.38771 18.3393 7.84917 18.0142 8.20117C17.8448 8.37821 17.6381 8.51688 17.4085 8.60753C17.179 8.69818 16.932 8.73862 16.6848 8.72604ZM18.079 11.1436V27.6532H15.2388V11.1341L18.079 11.1436Z"
            fill="#13191E"></path>
        <path
            d="M42.4326 19.8238V31.8958H38.2598V0.918945H47.4776C51.0636 0.918945 53.8487 1.6474 55.833 3.10431C57.8173 4.56122 58.804 6.81339 58.7932 9.86082C58.8335 11.41 58.5408 12.9502 57.934 14.3811C57.4014 15.5952 56.5757 16.664 55.5282 17.4953C54.435 18.3352 53.1732 18.939 51.8255 19.2671C50.2845 19.6546 48.6987 19.8439 47.108 19.8302L42.4326 19.8238ZM42.4326 4.59622V16.1465H47.108C48.1326 16.1577 49.1546 16.0412 50.1493 15.7998C51.0021 15.5984 51.8048 15.2306 52.5097 14.7183C53.1817 14.2151 53.7127 13.5529 54.053 12.7937C54.4413 11.8885 54.6292 10.9126 54.6042 9.9308C54.6042 8.05612 53.9871 6.69994 52.7528 5.86227C51.5186 5.02459 49.7548 4.60682 47.4614 4.60894L42.4326 4.59622Z">
        </path>
        <path
            d="M99.1825 32.3286C98.0296 32.3324 96.8785 32.2377 95.7424 32.0455C94.7304 31.8755 93.7299 31.645 92.7465 31.3552C91.9095 31.112 91.0976 30.7926 90.3213 30.4009C89.7139 30.1032 89.1373 29.7484 88.5996 29.3416L89.2481 25.448C89.7821 25.8552 90.3505 26.217 90.947 26.5296C92.541 27.3854 94.2586 27.9979 96.0407 28.346C97.0698 28.5568 98.1182 28.6634 99.1695 28.6641C101.463 28.6641 103.293 28.2399 104.659 27.3916C106.025 26.5434 106.709 25.2529 106.711 23.5203C106.74 22.7775 106.572 22.04 106.225 21.3795C105.881 20.7974 105.396 20.307 104.814 19.9512C104.092 19.5175 103.314 19.1825 102.499 18.9556C101.572 18.682 100.491 18.3872 99.257 18.0712C98.0228 17.7552 96.7886 17.3947 95.5543 16.9897C94.3738 16.6155 93.2528 16.0801 92.2245 15.3992C91.2506 14.7482 90.4375 13.8917 89.8446 12.8925C89.2416 11.8809 88.94 10.5969 88.94 9.04028C88.94 6.3873 89.8803 4.30373 91.7608 2.78956C93.6414 1.27539 96.4935 0.518301 100.317 0.518301C101.394 0.5099 102.47 0.574736 103.537 0.712344C104.374 0.810188 105.205 0.958921 106.024 1.15769C106.656 1.32377 107.275 1.53644 107.875 1.79389C108.407 2.02611 108.848 2.24242 109.243 2.4301L108.708 6.36185C107.576 5.65677 106.344 5.12074 105.051 4.77134C103.515 4.35304 101.927 4.14956 100.333 4.16694C99.1857 4.14437 98.0391 4.2511 96.9161 4.48505C96.1162 4.64982 95.3558 4.96293 94.6757 5.40754C94.1328 5.77678 93.7052 6.28666 93.4404 6.88036C93.1773 7.49989 93.046 8.16561 93.0545 8.83669C93.0255 9.59992 93.2324 10.3539 93.6479 10.9998C94.0624 11.5911 94.6049 12.0853 95.2366 12.4472C95.9499 12.8611 96.7121 13.188 97.5062 13.4206C98.3578 13.6814 99.2549 13.9126 100.197 14.114C101.434 14.4321 102.698 14.7714 103.991 15.132C105.224 15.4667 106.398 15.9837 107.473 16.6652C108.501 17.3302 109.367 18.2101 110.008 19.2418C110.67 20.3022 111.001 21.6647 111.001 23.3295C111.063 24.6977 110.763 26.0585 110.129 27.279C109.496 28.4994 108.55 29.5378 107.385 30.2927C106.239 31.0386 104.96 31.5673 103.615 31.8514C102.16 32.1727 100.673 32.3328 99.1825 32.3286Z">
        </path>
        <path
            d="M85.8336 19.1656C85.8787 21.2539 85.5798 23.3357 84.9485 25.3305C84.447 26.8965 83.6026 28.3362 82.4746 29.5485C81.427 30.6356 80.1329 31.4649 78.6973 31.9693C75.5904 33.0083 72.2201 33.0083 69.1131 31.9693C67.6772 31.4657 66.3829 30.6362 65.3358 29.5485C64.205 28.3344 63.3536 26.8958 62.8393 25.3305C62.1919 23.3387 61.8841 21.2558 61.9282 19.1656V13.5829C61.883 11.493 62.1898 9.41004 62.836 7.4181C63.3504 5.85274 64.2018 4.41421 65.3326 3.20005C66.3796 2.11235 67.6739 1.28288 69.1099 0.779286C72.2168 -0.259762 75.5871 -0.259762 78.6941 0.779286C80.1297 1.28364 81.4238 2.113 82.4714 3.20005C83.6006 4.41211 84.446 5.85174 84.9485 7.4181C85.5798 9.41291 85.8787 11.4946 85.8336 13.5829V19.1656ZM81.7321 13.5829C81.7635 12.0227 81.5781 10.4656 81.1809 8.95453C80.8845 7.82242 80.3536 6.76232 79.6214 5.8403C78.9732 5.05173 78.1227 4.44674 77.1572 4.08756C75.0504 3.36657 72.7568 3.36657 70.65 4.08756C69.681 4.45033 68.8251 5.0544 68.1664 5.8403C67.4204 6.75692 66.8811 7.81836 66.5841 8.95453C66.187 10.4656 66.0015 12.0227 66.0329 13.5829V19.1656C66.0015 20.7258 66.187 22.283 66.5841 23.794C66.8805 24.9262 67.4114 25.9862 68.1437 26.9083C68.7955 27.7013 69.6536 28.3069 70.6273 28.661C71.678 29.0326 72.7884 29.2157 73.9052 29.2018C75.0104 29.2157 76.1091 29.0325 77.1475 28.661C78.1136 28.3031 78.9645 27.6979 79.6117 26.9083C80.3439 25.9862 80.8748 24.9262 81.1712 23.794C81.5684 22.283 81.7538 20.7258 81.7224 19.1656L81.7321 13.5829Z">
        </path>
    </symbol>
    <symbol viewBox="0 0 24 24" id="icon-location">
        <path
            d="M11.9251 0C7.52988 0 3.9751 3.756 3.9751 8.4C3.9751 14.7 11.9251 24 11.9251 24C11.9251 24 19.8751 14.7 19.8751 8.4C19.8751 3.756 16.3203 0 11.9251 0ZM11.9251 11.4C10.3578 11.4 9.08581 10.056 9.08581 8.4C9.08581 6.744 10.3578 5.4 11.9251 5.4C13.4924 5.4 14.7644 6.744 14.7644 8.4C14.7644 10.056 13.4924 11.4 11.9251 11.4Z">
        </path>
    </symbol>
    <symbol viewBox="0 0 24 24" id="icon-mail">
        <path
            d="M20.8 3H3.2C1.99 3 1.011 4.0125 1.011 5.25L1 18.75C1 19.9875 1.99 21 3.2 21H20.8C22.01 21 23 19.9875 23 18.75V5.25C23 4.0125 22.01 3 20.8 3ZM20.8 7.5L12 13.125L3.2 7.5V5.25L12 10.875L20.8 5.25V7.5Z">
        </path>
    </symbol>
    <symbol viewBox="0 0 24 24" id="icon-phone">
        <path
            d="M6.62 10.79C8.06 13.62 10.38 15.93 13.21 17.38L15.41 15.18C15.68 14.91 16.08 14.82 16.43 14.94C17.55 15.31 18.76 15.51 20 15.51C20.55 15.51 21 15.96 21 16.51V20C21 20.55 20.55 21 20 21C10.61 21 3 13.39 3 4C3 3.45 3.45 3 4 3H7.5C8.05 3 8.5 3.45 8.5 4C8.5 5.25 8.7 6.45 9.07 7.57C9.18 7.92 9.1 8.31 8.82 8.59L6.62 10.79Z">
        </path>
    </symbol>
    <symbol width="18" height="18" viewBox="0 0 18 18" fill="none"
        xmlns="http://www.w3.org/2000/svg"
        id="icon-whats-app">
        <!-- <g clip-path="url(#clip0_1802_6740)"> -->
        <path fill-rule="evenodd" clip-rule="evenodd"
            d="M13.0613 10.7865C12.8378 10.6748 11.742 10.1363 11.538 10.0613C11.334 9.98703 11.1855 9.95028 11.0363 10.1738C10.8877 10.3958 10.461 10.8983 10.3312 11.0468C10.2007 11.196 10.071 11.214 9.84825 11.103C9.6255 10.9905 8.907 10.7558 8.05575 9.99678C7.3935 9.40578 6.94575 8.67603 6.816 8.45253C6.68625 8.22978 6.80175 8.10903 6.9135 7.99803C7.014 7.89828 7.13625 7.73778 7.248 7.60803C7.35975 7.47753 7.3965 7.38453 7.47075 7.23528C7.54575 7.08678 7.50825 6.95703 7.452 6.84528C7.3965 6.73353 6.951 5.63628 6.765 5.19003C6.58425 4.75578 6.4005 4.81503 6.264 4.80753C6.1335 4.80153 5.985 4.80003 5.8365 4.80003C5.688 4.80003 5.4465 4.85553 5.2425 5.07903C5.03775 5.30178 4.4625 5.84103 4.4625 6.93828C4.4625 8.03478 5.2605 9.09453 5.37225 9.24378C5.484 9.39228 6.9435 11.6438 9.17925 12.609C9.71175 12.8385 10.1265 12.9758 10.4497 13.0778C10.9837 13.248 11.4698 13.224 11.8538 13.1663C12.2812 13.1025 13.1723 12.627 13.3583 12.1065C13.5435 11.586 13.5435 11.1398 13.488 11.0468C13.4325 10.9538 13.284 10.8983 13.0605 10.7865H13.0613ZM8.99475 16.3388H8.99175C7.66382 16.339 6.36028 15.9821 5.21775 15.3053L4.94775 15.1448L2.14125 15.8813L2.8905 13.1453L2.71425 12.8648C1.97185 11.683 1.57897 10.3154 1.581 8.91978C1.5825 4.83228 4.908 1.50678 8.99775 1.50678C10.9777 1.50678 12.8393 2.27928 14.2388 3.68028C14.929 4.36772 15.4762 5.18521 15.8485 6.08546C16.2208 6.9857 16.4109 7.95084 16.4078 8.92503C16.4062 13.0125 13.0807 16.3388 8.99475 16.3388ZM15.3038 2.61603C14.4774 1.78422 13.4942 1.12468 12.4111 0.675631C11.328 0.226579 10.1665 -0.00305719 8.994 3.07332e-05C4.0785 3.07332e-05 0.0765 4.00128 0.075 8.91903C0.0727223 10.4841 0.483281 12.0221 1.26525 13.3778L0 18L4.728 16.7595C6.03591 17.4721 7.50157 17.8455 8.991 17.8455H8.99475C13.9102 17.8455 17.9123 13.8443 17.9137 8.92578C17.9174 7.75374 17.6886 6.59261 17.2406 5.50956C16.7926 4.42651 16.1343 3.44303 15.3038 2.61603Z"
            fill= "currentColor" />
        <!-- </g> -->
        <!-- <defs>
					<clipPath id="clip0_1802_6740">
						<rect width="18" height="18" fill="white" />
					</clipPath>
				</defs> -->
    </symbol>
    <symbol viewBox="0 0 16 16" id="icon-caret-right">
        <path d="M5.72656 11.06L8.7799 8L5.72656 4.94L6.66656 4L10.6666 8L6.66656 12L5.72656 11.06Z"></path>
    </symbol>
    <symbol viewBox="0 0 18 18" fill="none" id="icon-wa">
        <path fill-rule="evenodd" clip-rule="evenodd"
            d="M13.0613 10.7865C12.8378 10.6747 11.742 10.1362 11.538 10.0612C11.334 9.98699 11.1855 9.95024 11.0363 10.1737C10.8877 10.3957 10.461 10.8982 10.3312 11.0467C10.2007 11.196 10.071 11.214 9.84825 11.103C9.6255 10.9905 8.907 10.7557 8.05575 9.99674C7.3935 9.40574 6.94575 8.67599 6.816 8.45249C6.68625 8.22974 6.80175 8.10899 6.9135 7.99799C7.014 7.89824 7.13625 7.73774 7.248 7.60799C7.35975 7.47749 7.3965 7.38449 7.47075 7.23524C7.54575 7.08674 7.50825 6.95699 7.452 6.84524C7.3965 6.73349 6.951 5.63624 6.765 5.18999C6.58425 4.75574 6.4005 4.81499 6.264 4.80749C6.1335 4.80149 5.985 4.79999 5.8365 4.79999C5.688 4.79999 5.4465 4.85549 5.2425 5.07899C5.03775 5.30174 4.4625 5.84099 4.4625 6.93824C4.4625 8.03474 5.2605 9.09449 5.37225 9.24374C5.484 9.39224 6.9435 11.6437 9.17925 12.609C9.71175 12.8385 10.1265 12.9757 10.4497 13.0777C10.9837 13.248 11.4698 13.224 11.8538 13.1662C12.2812 13.1025 13.1723 12.627 13.3583 12.1065C13.5435 11.586 13.5435 11.1397 13.488 11.0467C13.4325 10.9537 13.284 10.8982 13.0605 10.7865H13.0613ZM8.99475 16.3387H8.99175C7.66382 16.339 6.36028 15.982 5.21775 15.3052L4.94775 15.1447L2.14125 15.8812L2.8905 13.1452L2.71425 12.8647C1.97185 11.683 1.57897 10.3153 1.581 8.91974C1.5825 4.83224 4.908 1.50674 8.99775 1.50674C10.9777 1.50674 12.8393 2.27924 14.2388 3.68024C14.929 4.36768 15.4762 5.18516 15.8485 6.08541C16.2208 6.98566 16.4109 7.9508 16.4078 8.92499C16.4062 13.0125 13.0807 16.3387 8.99475 16.3387ZM15.3038 2.61599C14.4774 1.78418 13.4942 1.12464 12.4111 0.675589C11.328 0.226537 10.1665 -0.00309915 8.994 -1.12285e-05C4.0785 -1.12285e-05 0.0765 4.00124 0.075 8.91899C0.0727223 10.4841 0.483281 12.022 1.26525 13.3777L0 18L4.728 16.7595C6.03591 17.4721 7.50157 17.8455 8.991 17.8455H8.99475C13.9102 17.8455 17.9123 13.8442 17.9137 8.92574C17.9174 7.7537 17.6886 6.59257 17.2406 5.50951C16.7926 4.42646 16.1343 3.44299 15.3038 2.61599Z"
            fill="currentColor"></path>
    </symbol>
    <symbol viewBox="0 0 18 18" fill="none" id="icon-wa-colored">
        <path fill-rule="evenodd" clip-rule="evenodd"
            d="M13.0613 10.7865C12.8378 10.6747 11.742 10.1362 11.538 10.0612C11.334 9.98699 11.1855 9.95024 11.0363 10.1737C10.8877 10.3957 10.461 10.8982 10.3312 11.0467C10.2007 11.196 10.071 11.214 9.84825 11.103C9.6255 10.9905 8.907 10.7557 8.05575 9.99674C7.3935 9.40574 6.94575 8.67599 6.816 8.45249C6.68625 8.22974 6.80175 8.10899 6.9135 7.99799C7.014 7.89824 7.13625 7.73774 7.248 7.60799C7.35975 7.47749 7.3965 7.38449 7.47075 7.23524C7.54575 7.08674 7.50825 6.95699 7.452 6.84524C7.3965 6.73349 6.951 5.63624 6.765 5.18999C6.58425 4.75574 6.4005 4.81499 6.264 4.80749C6.1335 4.80149 5.985 4.79999 5.8365 4.79999C5.688 4.79999 5.4465 4.85549 5.2425 5.07899C5.03775 5.30174 4.4625 5.84099 4.4625 6.93824C4.4625 8.03474 5.2605 9.09449 5.37225 9.24374C5.484 9.39224 6.9435 11.6437 9.17925 12.609C9.71175 12.8385 10.1265 12.9757 10.4497 13.0777C10.9837 13.248 11.4698 13.224 11.8538 13.1662C12.2812 13.1025 13.1723 12.627 13.3583 12.1065C13.5435 11.586 13.5435 11.1397 13.488 11.0467C13.4325 10.9537 13.284 10.8982 13.0605 10.7865H13.0613ZM8.99475 16.3387H8.99175C7.66382 16.339 6.36028 15.982 5.21775 15.3052L4.94775 15.1447L2.14125 15.8812L2.8905 13.1452L2.71425 12.8647C1.97185 11.683 1.57897 10.3153 1.581 8.91974C1.5825 4.83224 4.908 1.50674 8.99775 1.50674C10.9777 1.50674 12.8393 2.27924 14.2388 3.68024C14.929 4.36768 15.4762 5.18516 15.8485 6.08541C16.2208 6.98566 16.4109 7.9508 16.4078 8.92499C16.4062 13.0125 13.0807 16.3387 8.99475 16.3387ZM15.3038 2.61599C14.4774 1.78418 13.4942 1.12464 12.4111 0.675589C11.328 0.226537 10.1665 -0.00309915 8.994 -1.12285e-05C4.0785 -1.12285e-05 0.0765 4.00124 0.075 8.91899C0.0727223 10.4841 0.483281 12.022 1.26525 13.3777L0 18L4.728 16.7595C6.03591 17.4721 7.50157 17.8455 8.991 17.8455H8.99475C13.9102 17.8455 17.9123 13.8442 17.9137 8.92574C17.9174 7.7537 17.6886 6.59257 17.2406 5.50951C16.7926 4.42646 16.1343 3.44299 15.3038 2.61599Z"
            fill="#25D366"></path>
    </symbol>
    <symbol viewBox="0 0 24 24" fill="none" id="icon-close">
        <path
            d="M0.765311 0.765956C1.18833 0.34293 1.87417 0.342931 2.29719 0.765957L23.2329 21.7021C23.6559 22.1252 23.6559 22.811 23.2329 23.234C22.8099 23.6571 22.124 23.6571 21.701 23.234L0.765313 2.29787C0.342297 1.87484 0.342295 1.18898 0.765311 0.765956Z"
            fill="currentColor"></path>
        <path
            d="M23.2327 0.765956C22.8097 0.34293 22.1239 0.342931 21.7009 0.765957L0.765179 21.7021C0.342162 22.1252 0.342162 22.811 0.765178 23.234C1.18819 23.6571 1.87404 23.6571 2.29706 23.234L23.2327 2.29787C23.6558 1.87484 23.6558 1.18898 23.2327 0.765956Z"
            fill="currentColor"></path>
    </symbol>
    <symbol viewBox="0 0 24 24" fill="none" id="icon-clock">
        <path
            d="M11.5 22C17.299 22 22 17.299 22 11.5C22 5.70101 17.299 1 11.5 1C5.70101 1 1 5.70101 1 11.5C1 17.299 5.70101 22 11.5 22Z"
            stroke="currentColor" stroke-width="2" stroke-linecap="round" stroke-linejoin="round"></path>
        <path d="M11.5 5.5V11.5L14.5 14.5" stroke="currentColor" stroke-width="2"
            stroke-linecap="round"
            stroke-linejoin="round"></path>
    </symbol>
    <symbol viewBox="0 0 17 17" fill="none" id="slick-prev">
        <line x1="1" y1="-1" x2="11" y2="-1"
            transform="matrix(-0.707107 0.707107 0.707107 0.707107 12.4141 1.41406)"
            stroke="currentColor"
            stroke-width="2" stroke-linecap="round"></line>
        <line x1="1" y1="-1" x2="11" y2="-1"
            transform="matrix(0.707107 0.707107 0.707107 -0.707107 3.92969 7.07031)"
            stroke="currentColor"
            stroke-width="2" stroke-linecap="round"></line>
    </symbol>
    <symbol viewBox="0 0 17 17" fill="none" id="slick-next">
        <line x1="6.00015" y1="1.41406" x2="13.0712" y2="8.48513" stroke="currentColor"
            stroke-width="2"
            stroke-linecap="round"></line>
        <line x1="13.0703" y1="8.48453" x2="5.99924" y2="15.5556" stroke="currentColor"
            stroke-width="2"
            stroke-linecap="round"></line>
    </symbol>
    <symbol viewBox="0 0 20 20" fill="none" id="icon-filter">
        <path d="M15.2791 5H4.16797L8.61241 10.2556V13.8889L10.8346 15V10.2556L15.2791 5Z"
            stroke="currentColor"
            stroke-width="1.2" stroke-linecap="round" stroke-linejoin="round"></path>
    </symbol>
    <symbol viewBox="0 0 16 16" fill="none" id="icon-caret-up">
        <path d="M11.06 10.2734L8 7.2201L4.94 10.2734L4 9.33344L8 5.33344L12 9.33344L11.06 10.2734Z"
            fill="currentColor"></path>
    </symbol>
    <symbol viewBox="0 0 16 16" fill="none" id="icon-caret-down">
        <path d="M4.94 5.72656L8 8.7799L11.06 5.72656L12 6.66656L8 10.6666L4 6.66656L4.94 5.72656Z"
            fill="currentColor"></path>
    </symbol>
    <symbol viewBox="0 0 28 28" fill="none" id="icon-search">
        <path
            d="M18.0833 16.3333H17.1617L16.835 16.0183C17.9783 14.6883 18.6667 12.9617 18.6667 11.0833C18.6667 6.895 15.2717 3.5 11.0833 3.5C6.895 3.5 3.5 6.895 3.5 11.0833C3.5 15.2717 6.895 18.6667 11.0833 18.6667C12.9617 18.6667 14.6883 17.9783 16.0183 16.835L16.3333 17.1617V18.0833L22.1667 23.905L23.905 22.1667L18.0833 16.3333ZM11.0833 16.3333C8.17833 16.3333 5.83333 13.9883 5.83333 11.0833C5.83333 8.17833 8.17833 5.83333 11.0833 5.83333C13.9883 5.83333 16.3333 8.17833 16.3333 11.0833C16.3333 13.9883 13.9883 16.3333 11.0833 16.3333Z"
            fill="currentColor"></path>
    </symbol>
    <symbol viewBox="0 0 10 5" fill="none" id="icon-caret-menu">
        <path d="M5 5L9.33013 0.5H0.669873L5 5Z" fill="currentColor"></path>
    </symbol>
</svg>