<svg width="50" height="50" viewBox="0 0 50 50" fill="none" xmlns="http://www.w3.org/2000/svg">
<path fill-rule="evenodd" clip-rule="evenodd" d="M23.1365 0.108057C22.8387 0.250927 22.1849 1.25702 21.6261 2.43247C20.0615 5.72403 20.3388 8.69847 22.419 10.9351C22.8051 11.3504 23.7157 12.1833 24.4425 12.7863C25.1694 13.3892 25.9925 14.1479 26.2718 14.472C28.1675 16.6728 27.9775 19.2035 25.6388 22.9031C25.3497 23.3605 25.1131 23.7962 25.1131 23.8715C25.1131 24.4155 25.7506 24.8875 26.3014 24.7513C26.8963 24.6042 28.6049 21.5791 29.081 19.8298C29.4203 18.5835 29.4264 16.8872 29.0956 15.8404C28.5937 14.2528 27.7836 13.2336 25.5449 11.373C23.2663 9.47947 22.5801 8.46136 22.4353 6.7605C22.3217 5.42461 22.9051 3.60602 24.0359 1.77209C24.5826 0.885383 24.5663 0.448318 23.9757 0.147335C23.6118 -0.0381503 23.4565 -0.0453829 23.1365 0.108057ZM30.3247 1.52473C29.8445 2.03112 28.8556 4.00537 28.6121 4.94348C28.2272 6.42625 28.3608 7.84771 29.0023 9.09493C29.3809 9.83119 30.2374 10.7278 31.7369 11.9578C33.1106 13.0846 33.4537 13.4656 33.8108 14.261C34.4624 15.7123 34.0219 17.6095 32.5245 19.8001C32.0183 20.5407 31.9843 21.0083 32.4125 21.3401C33.1893 21.9423 33.8355 21.3953 34.9664 19.1785C36.0734 17.0088 36.2188 15.0961 35.4064 13.3966C34.9587 12.4603 34.3153 11.7548 32.6796 10.4073C31.2186 9.20364 30.9745 8.94327 30.5209 8.10374C30.2917 7.67981 30.2523 7.45059 30.2534 6.54942C30.2545 5.63902 30.3 5.38433 30.5813 4.71348C30.761 4.2851 31.1287 3.57509 31.3985 3.13569C31.959 2.22284 32.0047 1.86867 31.6118 1.48167C31.2244 1.09991 30.7112 1.11716 30.3247 1.52473ZM16.1723 3.35044C15.6763 3.74411 14.762 5.42349 14.3681 6.66459C14.0188 7.76504 14.0138 9.41449 14.3569 10.3444C14.8156 11.5874 15.4262 12.3256 17.1527 13.7247C17.7842 14.2364 18.535 14.9116 18.8211 15.2253C20.2651 16.8077 20.1139 18.8314 18.3491 21.542C18.032 22.0291 17.7726 22.549 17.7726 22.6976C17.7726 23.0704 18.0475 23.4224 18.4084 23.5116C18.9281 23.6401 19.3131 23.3814 19.8665 22.5318C21.3801 20.2081 21.9143 18.087 21.4391 16.2894C21.0841 14.9465 20.3361 13.9736 18.5779 12.5682C16.6228 11.0054 16.0492 10.2377 15.8996 8.98355C15.7705 7.9009 16.1964 6.54075 17.1476 4.99789C17.3671 4.64183 17.5467 4.21711 17.5467 4.0541C17.5467 3.43445 16.647 2.97379 16.1723 3.35044ZM5.63239 26.5635C4.84221 27.047 4.4247 27.8165 4.41871 28.8003C4.4125 29.8136 4.81307 30.5336 5.60416 30.9315C6.00789 31.1344 6.02765 31.1703 6.02765 31.6985C6.02765 32.0032 5.98429 32.2526 5.93132 32.2526C5.87836 32.2526 5.23035 31.9714 4.49144 31.6278C2.83247 30.8564 2.17115 30.7578 1.39745 31.1666C0.0428332 31.8822 -0.413298 33.565 0.413588 34.7962C0.731039 35.2688 1.10292 35.4769 4.01182 36.8111L6.00518 37.7252L6.05645 40.0238C6.11009 42.4311 6.18948 42.9166 6.75403 44.2938C7.17606 45.3232 7.71689 46.1392 8.56817 47.0307C9.86643 48.3903 11.0693 49.1325 12.8818 49.6927L13.8764 50H25.0002H36.124L37.1186 49.6927C38.9381 49.1304 40.1656 48.3708 41.4425 47.0168C42.2945 46.1134 42.8348 45.2977 43.2464 44.2938C43.8034 42.935 43.8862 42.4279 43.9434 40.0251L43.9979 37.7276L45.7639 36.9212C48.7324 35.5658 49.2705 35.2671 49.5834 34.8012C50.4137 33.5649 49.9601 31.8835 48.6029 31.1666C47.8292 30.7578 47.1679 30.8564 45.5089 31.6278C44.77 31.9714 44.122 32.2526 44.0691 32.2526C44.0161 32.2526 43.9727 32.0007 43.9727 31.6928C43.9727 31.2598 44.0176 31.1173 44.1704 31.0643C45.6549 30.5491 46.0734 28.2039 44.8984 26.9852C44.2472 26.3096 45.6931 26.3553 24.9776 26.3558C6.63319 26.3561 5.95944 26.3633 5.63239 26.5635ZM43.6704 28.2191C43.8229 28.4742 43.8513 28.9933 43.7219 29.156C43.5897 29.3222 42.0144 29.3417 25.0816 29.3863C10.6175 29.4243 6.54454 29.4053 6.39683 29.2989C6.20789 29.1628 6.14996 28.502 6.30524 28.2545C6.3922 28.1159 43.5879 28.0808 43.6704 28.2191ZM42.1392 36.7312C42.0948 42.7945 42.1149 42.6134 41.3133 44.1581C40.2574 46.1927 38.3062 47.6533 36.044 48.1025C34.7356 48.3623 15.2595 48.3617 13.9564 48.1017C11.6281 47.6374 9.63582 46.1069 8.60611 43.9915C7.86878 42.4767 7.83874 42.1796 7.83648 36.3974L7.83456 31.2512H25.007H42.1794L42.1392 36.7312ZM4.28512 33.4943L6.02765 34.2909V34.9965C6.02765 35.3845 5.98948 35.7007 5.94295 35.6993C5.89643 35.6977 4.96892 35.2822 3.88195 34.7759L1.90564 33.8554L1.8712 33.454C1.84432 33.1395 1.89243 33.0142 2.09401 32.8751C2.2354 32.7775 2.39419 32.6977 2.44681 32.6977C2.49944 32.6977 3.32666 33.0562 4.28512 33.4943ZM47.9064 32.8751C48.1083 33.0144 48.1562 33.1394 48.1292 33.4562L48.0947 33.8598L46.1184 34.7785C45.0315 35.2839 44.1041 35.6984 44.0574 35.6996C44.0108 35.7009 43.9727 35.3846 43.9727 34.9966V34.2913L45.6949 33.4986C46.6421 33.0625 47.4693 32.7039 47.5331 32.7017C47.597 32.6994 47.765 32.7775 47.9064 32.8751ZM9.01526 35.7525C8.75575 36.0081 8.73802 36.1013 8.73802 37.2041C8.73802 38.3068 8.75575 38.4 9.01526 38.6556C9.18997 38.8278 9.42148 38.9287 9.64147 38.9287C9.86146 38.9287 10.093 38.8278 10.2677 38.6556C10.5272 38.4 10.5449 38.3068 10.5449 37.2041C10.5449 36.1013 10.5272 36.0081 10.2677 35.7525C10.093 35.5803 9.86146 35.4794 9.64147 35.4794C9.42148 35.4794 9.18997 35.5803 9.01526 35.7525ZM8.95936 40.2361C8.74106 40.507 8.72017 40.6317 8.77811 41.321C8.96467 43.5435 10.4121 45.6478 12.4474 46.6557C13.1771 47.0171 14.5836 47.3852 15.2344 47.3852C15.9102 47.3852 16.3044 47.0572 16.3044 46.495C16.3044 45.9905 15.9088 45.6049 15.3913 45.6049C13.8472 45.6049 12.0687 44.5937 11.2555 43.2533C10.8612 42.6034 10.5449 41.5662 10.5449 40.9232C10.5449 40.3218 10.1886 39.9301 9.64147 39.9301C9.30166 39.9301 9.15202 39.9972 8.95936 40.2361Z" fill="#B11227"/>
</svg>
