<svg width="42" height="44" viewBox="0 0 42 44" fill="none" xmlns="http://www.w3.org/2000/svg">
    <path fill-rule="evenodd" clip-rule="evenodd" d="M23.1742 0.0883426C22.9983 0.155054 22.7397 0.30096 22.5994 0.412605C22.4591 0.524337 19.8778 4.29567 16.8631 8.79334L11.3818 16.9709L9.83207 16.9944L8.28238 17.0179L8.32854 16.7362C8.35395 16.5812 8.50767 15.0406 8.67021 13.3125C8.83265 11.5845 8.98748 10.0069 9.01424 9.80684C9.06083 9.45805 9.08742 9.42999 9.66209 9.12311C10.2428 8.81288 11.0535 8.101 11.3931 7.60303L11.559 7.35968L14.0115 7.61095C15.6644 7.78027 16.5373 7.83682 16.6889 7.78423C17.163 7.61973 17.1974 6.88598 16.7405 6.68249C16.635 6.63549 15.4291 6.48649 14.0606 6.35134C11.2973 6.07847 11.0879 6.09035 10.6757 6.54356C10.5407 6.69204 10.2355 7.02956 9.99732 7.29357C9.73569 7.58366 9.3709 7.87048 9.07573 8.01828C8.32761 8.39281 8.06539 8.62264 7.92276 9.0286C7.84594 9.24732 7.64673 10.9361 7.43033 13.2049L7.06681 17.014H6.66146H6.25601L6.30234 16.6912C6.32784 16.5137 6.59556 13.818 6.89725 10.701C7.19903 7.58383 7.48445 4.96038 7.53146 4.87103C7.65893 4.62897 7.89388 4.53213 8.3487 4.53437C8.57306 4.5354 10.8307 4.74604 13.3659 5.00238C17.4469 5.41505 18.0015 5.45465 18.2048 5.34774C18.6124 5.13348 18.5972 4.45319 18.1808 4.27656C18.0751 4.23171 16.5783 4.05619 14.8547 3.88653C13.1312 3.71687 10.9299 3.49788 9.96301 3.39992C8.97994 3.30033 8.04006 3.24696 7.83086 3.27881C7.06648 3.39536 6.40584 4.07169 6.24611 4.90133C6.19851 5.1482 5.96102 7.42252 5.71836 9.95542L5.27709 14.5607L4.20924 14.6092C3.29418 14.6507 3.0826 14.6883 2.73128 14.8721C2.01111 15.2488 1.60643 15.9659 1.59559 16.8848C1.59067 17.301 1.57746 17.3238 1.19522 17.5735C0.977894 17.7155 0.675357 17.9989 0.522988 18.2032C-0.0415145 18.9606 -0.0143269 18.298 0.0104045 30.7055L0.0328491 41.9341L0.232056 42.3819C0.483943 42.9478 1.17261 43.6169 1.72703 43.8341C2.1401 43.996 2.57857 44 20.0212 44H37.8922L38.3338 43.797C38.8575 43.5563 39.4811 42.9105 39.7404 42.3401C39.9182 41.9488 39.9259 41.8147 39.9499 38.6415L39.9748 35.349L40.2887 35.3485C41.0178 35.3473 41.6592 34.9784 41.8845 34.4304C41.9759 34.2082 42 33.3918 42 30.5278C42 27.09 41.9915 26.8894 41.8326 26.5726C41.574 26.0576 41.2176 25.8464 40.5408 25.8076L39.9673 25.7747V22.6581C39.9673 20.0481 39.9452 19.466 39.8313 19.0764C39.6817 18.564 39.3218 17.9806 38.9936 17.7183C38.8013 17.5646 38.7815 17.489 38.7815 16.9108C38.7815 16.1472 38.5241 15.5306 38.0328 15.1176C37.6843 14.8247 37.0508 14.6037 36.5594 14.6037H36.2314L37.2212 13.1306C37.771 12.3123 38.2645 11.4801 38.3314 11.2584C38.5388 10.5701 38.3175 9.74581 37.7941 9.2574C37.6618 9.13387 36.5434 8.33488 35.309 7.48183C34.0745 6.62878 31.2351 4.66331 28.9991 3.11414C26.7631 1.56504 24.8227 0.238982 24.687 0.16745C24.3374 -0.0169331 23.5593 -0.0575628 23.1742 0.0883426ZM24.2255 1.35389C24.7379 1.63253 36.744 10.0038 36.9394 10.2186C37.3124 10.6286 37.2565 10.8328 36.4312 12.0736C36.0236 12.6864 35.1184 14.0471 34.4197 15.0974L33.1492 17.007L32.6613 17.0105L32.1734 17.014L33.1624 15.5383C33.7063 14.7267 34.2022 13.9125 34.2644 13.7291C34.3959 13.3414 34.3421 13.0428 33.9877 12.1935C33.7893 11.718 33.7508 11.4944 33.7316 10.7047C33.7129 9.9413 33.6775 9.72412 33.5332 9.48671C33.4085 9.28176 32.3609 8.50695 29.9246 6.81824C28.0365 5.50948 26.3959 4.40163 26.2789 4.35635C25.9094 4.21363 25.5174 4.26571 24.8342 4.54823C24.2519 4.78899 24.0613 4.82489 23.2659 4.84305C22.1952 4.86758 21.8931 4.98258 21.5264 5.50518C21.3869 5.70393 19.6245 8.32636 17.6101 11.3327C15.5956 14.339 13.9003 16.8494 13.8426 16.9114C13.7757 16.9832 13.5825 17.0143 13.308 16.9974L12.8782 16.9709L18.0396 9.26678C20.8784 5.0295 23.2806 1.4948 23.3779 1.41199C23.5774 1.24224 23.9707 1.21521 24.2255 1.35389ZM29.2532 7.87056L32.4716 10.102L32.5223 11.0402C32.5619 11.7738 32.6236 12.1097 32.8051 12.5809C32.9327 12.9123 33.0433 13.2434 33.0509 13.3167C33.0583 13.3899 32.5309 14.2505 31.8788 15.229L30.693 17.0082L29.6303 17.011L28.5676 17.014L28.4701 16.4348C28.3373 15.6475 27.7922 14.5576 27.2129 13.9217C26.6 13.2489 25.9483 12.8195 25.0771 12.5143C23.3096 11.8951 21.1907 12.4033 19.8853 13.7595C19.1539 14.5195 18.6043 15.5964 18.4726 16.5274L18.4098 16.9709L16.859 16.9944C15.621 17.0132 15.3214 16.9958 15.3738 16.9083C15.4099 16.8481 17.0556 14.3875 19.0309 11.4403L22.6224 6.08182H23.4137C24.0245 6.08182 24.3557 6.03285 24.8657 5.86697C25.2291 5.74878 25.5817 5.61587 25.649 5.57163C25.7191 5.52566 25.8278 5.52291 25.9031 5.56517C25.9755 5.60589 27.483 6.64332 29.2532 7.87056ZM24.4225 13.6167C25.1116 13.7991 25.6791 14.1318 26.1949 14.6562C26.7257 15.1957 27.0483 15.7758 27.2107 16.4835L27.3325 17.014H23.4824H19.6324L19.69 16.6912C20.0795 14.5079 22.3116 13.0578 24.4225 13.6167ZM5.12523 16.1639C5.09609 16.3119 5.07229 16.5637 5.07229 16.7234V17.014H3.97124H2.87018V16.7061C2.87018 16.4805 2.93642 16.3308 3.11775 16.1465C3.36058 15.8997 3.38285 15.8949 4.27174 15.8949H5.17817L5.12523 16.1639ZM37.2012 16.0717C37.4405 16.2631 37.6758 16.8923 37.5465 16.9953C37.5037 17.0293 36.8318 17.0448 36.0533 17.0298L34.6378 17.0024L34.9946 16.4505L35.3513 15.8985L36.1657 15.8967C36.8605 15.8952 37.0125 15.9208 37.2012 16.0717ZM38.0749 18.6126C38.6099 19.0471 38.6966 19.3132 38.6967 20.5217L38.6968 21.5762H19.9789H1.26095V20.4959C1.26095 19.7333 1.2961 19.3473 1.38046 19.1832C1.53393 18.8847 1.92175 18.5112 2.19261 18.4012C2.33168 18.3448 8.46787 18.3209 20.0769 18.3317L37.7495 18.3482L38.0749 18.6126ZM38.6968 24.3308V25.7941L35.4995 25.7954C32.9495 25.7964 32.1926 25.8229 31.7604 25.9264C30.2793 26.2813 29.0103 27.4353 28.4507 28.936C28.2106 29.5799 28.1242 30.8963 28.2775 31.5728C28.6561 33.242 29.9129 34.5983 31.5823 35.1392C31.984 35.2693 32.5064 35.2953 35.3725 35.3279L38.6968 35.3656V36.8207V38.2757H23.4646C8.30737 38.2757 8.23156 38.2766 8.07801 38.449C7.88024 38.6711 7.88024 39.0854 8.07801 39.3075C8.23156 39.4799 8.30737 39.4808 23.4646 39.4808H38.6968L38.6955 40.5783C38.6942 41.5568 38.6734 41.713 38.5031 42.0184C38.3961 42.2105 38.1642 42.4462 37.9752 42.555L37.6381 42.749L19.9917 42.7505C0.339536 42.752 2.0117 42.805 1.53147 42.1657C1.31312 41.8751 1.30211 41.811 1.27569 40.6715L1.24816 39.4808H3.03314C4.7053 39.4808 4.82896 39.4699 4.9876 39.3086C5.0817 39.213 5.15699 39.0217 5.15699 38.8782C5.15699 38.7348 5.0817 38.5435 4.9876 38.4478C4.82896 38.2866 4.7053 38.2757 3.03958 38.2757H1.26095V30.5715V22.8674H19.9789H38.6968V24.3308ZM40.7093 30.55L40.7314 34.0578L36.6015 34.0557C34.1857 34.0544 32.3208 34.0182 32.1082 33.9683C30.7779 33.6565 29.7103 32.5104 29.459 31.1243C29.1171 29.2384 30.4874 27.3411 32.373 27.0898C32.6602 27.0515 34.6483 27.0251 36.7912 27.0312L40.6872 27.0423L40.7093 30.55ZM32.2594 28.1126C31.1885 28.4436 30.3934 29.6383 30.506 30.7469C30.6447 32.1137 31.6545 33.0605 32.9748 33.0617C35.1563 33.0639 36.2677 30.5433 34.8438 28.8234C34.7232 28.6778 34.3914 28.4402 34.1063 28.2954C33.6773 28.0776 33.4919 28.0335 33.0298 28.0396C32.7228 28.0436 32.3761 28.0765 32.2594 28.1126ZM33.4795 29.3573C34.3704 29.7356 34.5063 31.0035 33.7196 31.5987C33.392 31.8466 32.7111 31.874 32.365 31.6531C31.5044 31.1039 31.5607 29.8179 32.4636 29.4012C32.8814 29.2083 33.1059 29.1987 33.4795 29.3573Z" fill="#B11227"/>
</svg>