<svg width="53" height="40" viewBox="0 0 53 40" fill="none" xmlns="http://www.w3.org/2000/svg">
    <path fill-rule="evenodd" clip-rule="evenodd" d="M30.2045 0.150333C28.9876 0.34111 27.4916 0.729752 26.2405 1.18011L25.2068 1.55218L18.2591 1.55228C11.3872 1.55228 11.3085 1.55468 11.0387 1.76839C10.7277 2.01473 10.6689 2.52545 10.9128 2.86155C11.0542 3.05639 11.2673 3.06588 16.6253 3.11602L22.1909 3.16815L21.2144 3.8955C20.6773 4.2955 19.7604 5.09301 19.1766 5.66774C18.2872 6.54344 18.1154 6.76434 18.1156 7.03174C18.1159 7.45781 18.4514 7.80725 18.8602 7.80725C19.1249 7.80725 19.3506 7.64368 20.1242 6.89184C22.8273 4.26444 25.8972 2.62459 29.5788 1.84147C30.5609 1.63255 30.9822 1.60482 33.126 1.60816C35.2537 1.61149 35.6949 1.64152 36.6456 1.84762C44.1634 3.47787 49.7484 9.2117 51.1588 16.7475C51.4869 18.4997 51.4869 21.5092 51.1588 23.2614C49.7489 30.7942 44.1658 36.5262 36.6456 38.1619C35.6859 38.3707 35.2679 38.3983 33.0742 38.3983C30.8762 38.3983 30.4645 38.371 29.5028 38.161C19.5832 35.9945 13.2869 26.7055 14.9998 16.7643C15.3541 14.7075 16.25 12.2722 17.2774 10.5727C17.8047 9.70063 17.846 9.32877 17.4534 8.98871C17.0697 8.65636 16.8011 8.68326 16.4182 9.09202C16.0382 9.49776 14.9548 11.5664 14.5023 12.7502C11.3158 21.0877 13.9446 30.49 20.9768 35.9068C21.4949 36.3057 22.0064 36.6881 22.1136 36.7564C22.2656 36.8535 21.0908 36.8819 16.7442 36.8867C11.3223 36.8927 11.1747 36.8982 10.973 37.1014C10.6647 37.4118 10.6969 37.9698 11.0387 38.2405C11.3085 38.4543 11.387 38.4566 18.2693 38.4566H25.2272L26.2146 38.8245C28.7119 39.7549 30.7009 40.0667 33.6436 39.9885C36.5427 39.9115 38.3331 39.5313 40.8618 38.4559C47.5096 35.6285 52.1438 29.2858 52.896 21.9852C53.9833 11.4312 46.4225 1.6902 35.9539 0.157943C34.5377 -0.0493051 31.5034 -0.0533706 30.2045 0.150333ZM31.8838 4.48096C29.2461 4.67007 26.6945 5.5638 24.417 7.09617C23.0761 7.99834 21.1528 9.9452 20.2601 11.3041C19.0789 13.1019 18.3494 14.8536 17.8958 16.9812C17.7012 17.8938 17.6624 18.3965 17.6624 20.0044C17.6624 21.6124 17.7012 22.1151 17.8958 23.0277C18.3494 25.1553 19.0789 26.907 20.2601 28.7048C21.1528 30.0637 23.0761 32.0106 24.417 32.9127C27.349 34.8856 30.6342 35.7607 34.2129 35.5225C40.8041 35.0837 46.4313 30.3172 48.0875 23.7702C48.4034 22.5221 48.4165 21.9548 48.1362 21.6724C47.7249 21.2583 46.9746 21.5151 46.8497 22.1129C46.8223 22.2433 46.7501 22.6081 46.6891 22.9234C46.5074 23.8627 46.0823 25.1044 45.6004 26.103C43.6555 30.1331 39.8333 33.0394 35.4552 33.8171C34.2349 34.0339 31.9136 34.0339 30.6933 33.8171C25.6604 32.9231 21.4293 29.2235 19.844 24.3308C19.3433 22.7855 19.2074 21.8613 19.2074 20.0044C19.2074 18.762 19.2582 18.0383 19.3906 17.3982C19.9957 14.472 21.2337 12.1517 23.2843 10.1007C24.9225 8.46215 26.5741 7.43039 28.7099 6.71138C30.1965 6.21088 31.3725 6.02625 33.0742 6.02625C34.776 6.02625 35.9519 6.21088 37.4386 6.71138C42.491 8.41232 46.1075 12.7667 46.8402 18.0313C47.0343 19.4261 47.1134 19.6544 47.4571 19.8121C47.7949 19.967 48.2733 19.7728 48.4352 19.4151C48.648 18.9445 48.2819 16.6666 47.7238 14.9889C46.9571 12.6845 45.5897 10.5489 43.7216 8.73883C41.2354 6.32962 37.8036 4.73815 34.627 4.5211C34.1715 4.49003 33.6125 4.45073 33.3848 4.43374C33.157 4.41685 32.4816 4.43812 31.8838 4.48096ZM3.50111 7.60136C3.25007 7.85416 3.20121 7.97311 3.25473 8.20079C3.29138 8.35706 3.41777 8.56692 3.53547 8.66731C3.73206 8.83484 4.10917 8.84975 8.13771 8.84975C12.3878 8.84975 12.5323 8.84318 12.7328 8.64125C13.0411 8.33079 13.0089 7.77285 12.6671 7.50211C12.4011 7.29143 12.2877 7.28601 8.10427 7.28601H3.81425L3.50111 7.60136ZM32.7637 7.92766C32.3691 8.14502 32.2978 8.3456 32.2978 9.23933C32.2978 10.025 32.3227 10.1352 32.552 10.3661C32.8758 10.6923 33.2727 10.6923 33.5965 10.3661C33.8238 10.1372 33.8506 10.0225 33.8506 9.27999C33.8506 8.28659 33.8095 8.15784 33.4291 7.95977C33.084 7.78004 33.0359 7.77765 32.7637 7.92766ZM24.7736 11.2482C24.4998 11.3593 24.3269 11.6604 24.3269 12.0263C24.3269 12.216 24.5077 12.4849 24.9272 12.9193C25.4429 13.4534 25.5804 13.541 25.9031 13.541C26.3268 13.541 26.7078 13.1693 26.7078 12.7563C26.7078 12.3462 25.4664 11.1192 25.0826 11.1498C25.037 11.1535 24.898 11.1978 24.7736 11.2482ZM40.6311 11.3329C40.1957 11.605 39.5624 12.3369 39.4815 12.6613C39.3787 13.0739 39.7233 13.4803 40.2111 13.5218C40.5638 13.5517 40.6541 13.4991 41.2102 12.939C41.6889 12.4569 41.8216 12.2544 41.8216 12.0055C41.8216 11.3478 41.1837 10.9874 40.6311 11.3329ZM8.24371 12.8188C7.90189 13.0896 7.8697 13.6475 8.17798 13.958C8.37042 14.1518 8.52301 14.1665 10.3443 14.1665H12.3037L12.5182 13.8918C12.763 13.5784 12.7795 13.4455 12.6179 13.0882C12.4271 12.6667 12.116 12.6027 10.2575 12.6027C8.65292 12.6027 8.49506 12.6196 8.24371 12.8188ZM32.7637 12.7206C32.2989 12.9822 32.2978 12.9915 32.2978 16.7209C32.2978 20.1212 32.3068 20.2876 32.5027 20.4993C32.7802 20.7994 33.3249 20.8647 35.1922 20.8222L36.7674 20.7863L37.017 20.4938C37.3229 20.1355 37.3314 19.907 37.0521 19.5494C36.8381 19.2753 36.8343 19.2747 35.3441 19.2747H33.8506V16.2109C33.8506 13.4447 33.833 13.1262 33.6695 12.9314C33.4434 12.6624 33.0356 12.5675 32.7637 12.7206ZM0.465834 16.5785C-0.0395441 16.8614 -0.134264 17.3025 0.214594 17.749L0.429085 18.0237H4.69457C9.5054 18.0237 9.4202 18.0366 9.4202 17.3042C9.4202 17.0352 9.35074 16.846 9.2024 16.7107C8.99681 16.5232 8.75106 16.5107 4.82873 16.4873C1.92928 16.47 0.610243 16.4976 0.465834 16.5785ZM21.2213 19.4832C20.9577 19.7487 20.9549 20.2574 21.2155 20.5199C21.6354 20.9427 23.1839 20.9422 23.5246 20.5191C23.749 20.2405 23.7574 19.8123 23.5446 19.5065C23.3975 19.2948 23.2987 19.2747 22.4059 19.2747C21.5664 19.2747 21.3992 19.3041 21.2213 19.4832ZM42.6497 19.4832C42.2557 19.88 42.4256 20.5309 42.9735 20.7232C43.6834 20.9724 44.8282 20.8024 45.0328 20.4174C45.1957 20.1108 45.1502 19.7079 44.9271 19.4832C44.7507 19.3056 44.5821 19.2747 43.7884 19.2747C42.9947 19.2747 42.8261 19.3056 42.6497 19.4832ZM0.214594 22.2599C0.0965829 22.4109 0 22.6455 0 22.7811C0 23.07 0.309521 23.4146 0.644404 23.4983C0.773906 23.5307 2.70349 23.5436 4.93225 23.527C8.74857 23.4986 8.99733 23.4852 9.2024 23.2982C9.35074 23.1629 9.4202 22.9737 9.4202 22.7047C9.4202 21.9723 9.5054 21.9852 4.69457 21.9852H0.429085L0.214594 22.2599ZM8.17798 26.0509C7.8697 26.3614 7.90189 26.9193 8.24371 27.1901C8.49599 27.3899 8.65209 27.4062 10.3221 27.4062H12.1276L12.4302 27.1014C12.788 26.7412 12.8103 26.4911 12.5182 26.1171L12.3037 25.8424H10.3443C8.52301 25.8424 8.37042 25.8571 8.17798 26.0509ZM24.9272 27.0896C24.4842 27.5483 24.3269 27.7881 24.3269 28.0047C24.3269 28.6405 24.9012 29.0032 25.4531 28.7159C25.8826 28.4921 26.7078 27.5298 26.7078 27.2526C26.7078 26.8396 26.3268 26.4679 25.9031 26.4679C25.5804 26.4679 25.4429 26.5555 24.9272 27.0896ZM39.6552 26.7426C39.402 27.0667 39.3901 27.2154 39.5874 27.5938C39.7577 27.9206 40.4233 28.5788 40.7583 28.7516C41.2534 29.0071 41.8216 28.6011 41.8216 27.9917C41.8216 27.7574 41.6796 27.5426 41.217 27.0767C40.7047 26.5608 40.5558 26.4679 40.2411 26.4679C39.9632 26.4679 39.8157 26.537 39.6552 26.7426ZM32.552 29.6428C32.3239 29.8724 32.2978 29.9855 32.2978 30.7442C32.2978 31.7083 32.3744 31.9134 32.8008 32.0914C33.0508 32.1956 33.1594 32.1896 33.4134 32.0574C33.8106 31.8504 33.8506 31.7289 33.8506 30.7289C33.8506 29.9864 33.8238 29.8717 33.5965 29.6428C33.4567 29.5021 33.2217 29.3869 33.0742 29.3869C32.9267 29.3869 32.6917 29.5021 32.552 29.6428ZM3.53547 31.3416C3.41777 31.4419 3.29138 31.6518 3.25473 31.8081C3.20121 32.0358 3.25007 32.1547 3.50111 32.4075L3.81425 32.7229H8.10427C12.2877 32.7229 12.4011 32.7175 12.6671 32.5068C13.0089 32.236 13.0411 31.6781 12.7328 31.3677C12.5323 31.1657 12.3878 31.1592 8.13771 31.1592C4.10917 31.1592 3.73206 31.1741 3.53547 31.3416Z" fill="#B11227"/>
</svg>