<svg width="44" height="44" viewBox="0 0 44 44" fill="none" xmlns="http://www.w3.org/2000/svg">
    <path fill-rule="evenodd" clip-rule="evenodd" d="M1.42857 0.112743C0.993367 0.249982 0.251096 1.01895 0.117645 1.47085C-0.0392151 2.00207 -0.0392151 41.9932 0.117645 42.5244C0.261559 43.0117 0.996116 43.7466 1.48319 43.8906C1.76508 43.9739 6.44082 43.9985 22.0171 43.9985C44.7588 43.9985 42.6986 44.0668 43.3968 43.2898C43.6077 43.0552 43.8276 42.7049 43.8855 42.5113C44.0382 42.0018 44.0382 1.99346 43.8855 1.48398C43.8276 1.29041 43.6077 0.940081 43.3968 0.705435C42.6982 -0.0719575 44.7683 -0.00435812 21.9624 0.00584389C7.48892 0.0123199 1.65069 0.0427485 1.42857 0.112743ZM42.3545 1.63399L42.5722 1.8517V21.9976V42.1436L42.3545 42.3613L42.1369 42.5791H22.0004H1.86386L1.64626 42.3613L1.42857 42.1436V21.9976V1.8517L1.64626 1.63399L1.86386 1.4162H22.0004H42.1369L42.3545 1.63399ZM5.9025 5.89222L5.68481 6.10992V21.9976V37.8853L5.9025 38.1031L6.1201 38.3208H22.0004H37.8807L38.0983 38.1031L38.316 37.8853V21.9976V6.10992L38.0983 5.89222L37.8807 5.67443H22.0004H6.1201L5.9025 5.89222ZM36.8972 21.9976V36.9014H22.0004H7.10356V21.9976V7.09384H22.0004H36.8972V21.9976ZM10.8681 10.8602L10.6504 11.0779V14.0538V17.0297H11.3598H12.0692V15.0563V13.0828L15.7044 16.7189L19.3397 20.3551L19.8491 19.8454L20.3586 19.3357L16.7242 15.6987L13.0897 12.0618H15.0623H17.0348V11.3521V10.6424H14.0603H11.0857L10.8681 10.8602ZM26.966 11.3521V12.0618H28.9385H30.9111L27.2766 15.6987L23.6422 19.3357L24.1517 19.8454L24.6611 20.3551L28.2964 16.7189L31.9316 13.0828V15.0563V17.0297H32.641H33.3504V14.0538V11.0779L33.1327 10.8602L32.9151 10.6424H29.9405H26.966V11.3521ZM15.6824 27.2981L12.0692 30.913V28.9393V26.9656H11.3598H10.6504V29.9414V32.9174L10.8681 33.1351L11.0857 33.3529H14.0603H17.0348V32.6432V31.9335H15.0623H13.0897L16.7027 28.318C18.6898 26.3295 20.3156 24.6613 20.3156 24.6109C20.3156 24.4957 19.4974 23.6832 19.3814 23.6832C19.3342 23.6832 17.6697 25.3099 15.6824 27.2981ZM24.103 24.1076C23.8732 24.3411 23.6852 24.5704 23.6852 24.6173C23.6852 24.6642 25.311 26.3295 27.2981 28.318L30.9111 31.9335H28.9385H26.966V32.6432V33.3529H29.9405H32.9151L33.1327 33.1351L33.3504 32.9174V29.9414V26.9656H32.641H31.9316V28.939V30.9125L28.3178 27.2978C26.3302 25.3097 24.6629 23.6832 24.6125 23.6832C24.5621 23.6832 24.3328 23.8742 24.103 24.1076Z" fill="#B11227"/>
</svg>