<svg width="43" height="40" viewBox="0 0 43 40" fill="none" xmlns="http://www.w3.org/2000/svg">
    <path fill-rule="evenodd" clip-rule="evenodd" d="M39.1865 0.127506C39.0016 0.197223 38.7106 0.369914 38.54 0.511168L38.2296 0.76804H28.6804C18.3252 0.76804 18.8142 0.746388 18.3069 1.22688C17.644 1.85468 17.644 3.14562 18.3069 3.77342C18.5558 4.00916 19.0601 4.23226 19.344 4.23226H19.5568V7.17685V10.1214H19.0903C18.5347 10.1214 18.1771 10.2914 18.003 10.6382C17.8181 11.0066 17.8181 13.9129 18.003 14.2814C18.2559 14.7851 18.3437 14.7981 21.4904 14.7981C24.6371 14.7981 24.7249 14.7851 24.9777 14.2814C25.1627 13.9129 25.1627 11.0066 24.9777 10.6382C24.8036 10.2914 24.446 10.1214 23.8905 10.1214H23.4239V7.17685V4.23226H27.1649C30.7939 4.23226 30.911 4.22706 31.0741 4.05905C31.3244 3.80114 31.2983 3.33762 31.0207 3.11271C30.8015 2.93508 30.7393 2.93318 25.0267 2.93318C20.649 2.93318 19.2298 2.90806 19.1533 2.82925C19.0233 2.69527 19.0233 2.30503 19.1533 2.17105C19.2306 2.09146 21.4035 2.06712 28.4217 2.06712H37.5893V2.50015V2.93318H35.52C33.5538 2.93318 33.4395 2.9421 33.2291 3.11271C32.9515 3.33762 32.9254 3.80114 33.1757 4.05905C33.3363 4.22446 33.4559 4.23226 35.8239 4.23226H38.3038V8.21611C38.3038 11.4269 38.2827 12.2 38.1946 12.2C37.9502 12.2 37.3679 12.6888 37.2086 13.0277C37.0561 13.3523 37.0428 13.5685 37.0428 15.7316V18.0826L33.1547 18.1075C28.8879 18.1349 29.0134 18.1189 28.7622 18.6644C28.6557 18.8956 28.6361 19.5714 28.6361 23.0198V27.1016L27.6483 27.0772L26.6605 27.0528L26.6185 22.8398C26.5787 18.856 26.5678 18.6169 26.4167 18.4451C26.3289 18.3451 26.1208 18.2243 25.9544 18.1767C25.5481 18.0605 17.4327 18.0605 17.0264 18.1767C16.8599 18.2243 16.6519 18.3451 16.564 18.4451C16.413 18.6169 16.402 18.856 16.3623 22.8398L16.3202 27.0528L15.3324 27.0772L14.3447 27.1016V25.5517C14.3447 24.1147 14.332 23.9851 14.1704 23.7735C13.9718 23.5133 13.56 23.4641 13.2889 23.668C13.1401 23.7799 13.122 23.9354 13.0836 25.4218L13.0416 27.0528L9.19553 27.0753L5.34945 27.0978V23.2422V19.3865L9.19553 19.409L13.0416 19.4315L13.0836 20.4564C13.12 21.3413 13.148 21.498 13.2889 21.6039C13.5601 21.8077 13.9718 21.7584 14.1704 21.4984C14.3271 21.2932 14.3447 21.1526 14.3447 20.1041C14.3447 19.2471 14.3112 18.8656 14.2186 18.6644C13.9661 18.1163 14.1239 18.135 9.51079 18.1059C7.19894 18.0914 5.14593 18.1036 4.94854 18.1331C4.75115 18.1627 4.48634 18.2784 4.36007 18.3903L4.13048 18.5937L4.08845 22.8115L4.04641 27.0292L3.43289 27.1897C1.86066 27.6009 0.692042 28.7146 0.168471 30.3005C-0.056157 30.9808 -0.056157 32.9112 0.168471 33.5915C0.581073 34.8414 1.39442 35.8054 2.48503 36.3373L3.15917 36.666L3.16144 37.8596C3.16404 39.2236 3.25172 39.5534 3.68408 39.8249C3.95999 39.9982 4.07197 39.9997 16.8457 40C29.6171 40.0003 29.7304 39.9989 29.8971 39.8271C30.1475 39.5692 30.1213 39.1057 29.8437 38.8808L29.6222 38.7012H17.0206H4.419L4.44287 37.7702L4.46675 36.8392H21.4904H38.514L38.5379 37.7702L38.5618 38.7012H35.4177C32.3642 38.7012 32.2673 38.7064 32.0522 38.8808C31.7746 39.1057 31.7484 39.5692 31.9988 39.8271C32.1615 39.9947 32.2788 40.0003 35.5927 40C38.8805 39.9997 39.0296 39.9926 39.2967 39.8249C39.729 39.5534 39.8167 39.2236 39.8193 37.8596L39.8216 36.666L40.4957 36.3373C41.5604 35.8181 42.3267 34.9343 42.7864 33.6956L42.9696 33.2018L42.9943 23.4154C43.0079 18.0328 42.9963 13.5 42.9686 13.3423C42.9034 12.9728 42.4093 12.4105 42.0393 12.2847L41.7506 12.1865V8.22278C41.7506 4.43318 41.7577 4.25252 41.911 4.10963C42.441 3.61545 42.6127 2.31499 42.2582 1.48002C42.0196 0.918214 41.3952 0.316998 40.8524 0.126466C40.3709 -0.0425876 39.6366 -0.0420679 39.1865 0.127506ZM40.5712 1.41628C40.9555 1.62102 41.1945 2.03655 41.1945 2.50015C41.1945 4.03004 39.0185 4.13301 38.8383 2.6117C38.7304 1.70069 39.7651 0.986805 40.5712 1.41628ZM22.143 7.15519L22.1209 10.0781H21.4904H20.8599L20.8378 7.15519L20.8156 4.23226H21.4904H22.1652L22.143 7.15519ZM40.4896 8.60584V12.2H40.0272H39.5648V8.60584V5.01171H40.0272H40.4896V8.60584ZM23.8443 12.4598V13.499H21.4904H19.1365V12.4598V11.4205H21.4904H23.8443V12.4598ZM41.7301 20.972L41.7515 28.4015L41.3098 28.0617C40.7104 27.6007 40.2492 27.3732 39.5357 27.1865L38.9343 27.0292L38.8923 22.8095L38.8503 18.5897L38.5771 18.3548L38.3038 18.1198V15.8672C38.3038 14.6282 38.3298 13.5877 38.3616 13.555C38.3934 13.5223 39.1595 13.5061 40.064 13.5189L41.7086 13.5423L41.7301 20.972ZM19.489 21.1582L19.5148 22.928L19.7617 23.1934L20.0086 23.4587H21.4627H22.9168L23.1914 23.2061L23.466 22.9536L23.4918 21.1709L23.5176 19.3882H24.4375H25.3575V23.2422V27.0961H21.4904H17.6233V23.2422V19.3882H18.5432H19.4632L19.489 21.1582ZM22.2281 20.7956L22.2513 22.1596H21.4925H20.7338V20.8317C20.7338 20.1012 20.7604 19.4763 20.793 19.4428C20.8255 19.4092 21.1565 19.393 21.5285 19.4067L22.2049 19.4315L22.2281 20.7956ZM31.8307 21.2363L31.8727 23.0411L32.1086 23.2499C32.3378 23.4529 32.3844 23.4587 33.7745 23.4587C34.5883 23.4587 35.2736 23.4205 35.3651 23.3701C35.6934 23.1891 35.7384 22.9504 35.7818 21.1636L35.8239 19.4315L36.7276 19.4069L37.6313 19.3823V23.2401V27.0978L33.7852 27.0753L29.9391 27.0528L29.9172 23.3288C29.9051 21.2805 29.9139 19.5547 29.9367 19.4935C29.9676 19.4103 30.2061 19.3886 30.8834 19.4069L31.7886 19.4315L31.8307 21.2363ZM34.5208 20.7739V22.1596H33.8062H33.0917V20.7739V19.3882H33.8062H34.5208V20.7739ZM39.9071 28.6754C40.5461 28.9987 41.1352 29.6196 41.449 30.3005C41.696 30.8363 41.7086 30.9158 41.7086 31.946C41.7086 32.9757 41.6959 33.0561 41.4495 33.5918C41.132 34.2818 40.5619 34.8853 39.9212 35.2095L39.4387 35.4535H21.4904H3.54201L3.07367 35.2166C2.43467 34.8933 1.84553 34.2724 1.53171 33.5915C1.28472 33.0558 1.27219 32.9763 1.27219 31.946C1.27219 30.9475 1.29001 30.8242 1.50211 30.3578C1.78324 29.7397 2.04964 29.4036 2.59457 28.9799C3.39085 28.3608 1.89126 28.4047 21.6165 28.4225L39.4387 28.4385L39.9071 28.6754ZM3.94292 29.693C3.03945 30.1638 2.57523 30.9286 2.57523 31.946C2.57523 32.9763 3.04399 33.7385 3.96503 34.2055C4.46053 34.4569 4.55939 34.477 5.11743 34.4394C5.83738 34.391 6.2995 34.1764 6.77843 33.668C7.89392 32.4838 7.54244 30.4539 6.08849 29.6835C5.84243 29.5531 5.52743 29.4809 5.09725 29.4562C4.5203 29.4231 4.42228 29.4432 3.94292 29.693ZM10.8974 29.5153C10.1711 29.7429 9.45959 30.4847 9.24791 31.2349C8.91971 32.3979 9.4564 33.6573 10.5196 34.2192C10.989 34.4673 11.8493 34.5199 12.3932 34.3338C13.74 33.873 14.4267 32.1791 13.8009 30.8614C13.5321 30.2953 12.9605 29.7558 12.4335 29.5709C12.0293 29.429 11.2616 29.4013 10.8974 29.5153ZM17.2893 29.5797C16.7693 29.7759 16.0941 30.489 15.9147 31.0312C15.5888 32.0167 15.802 33.0256 16.4848 33.7291C17.0325 34.2933 17.574 34.4969 18.3701 34.4381C19.704 34.3394 20.6042 33.3353 20.6042 31.946C20.6042 30.9287 20.1407 30.1359 19.2789 29.6792C18.8089 29.4301 17.8171 29.3805 17.2893 29.5797ZM24.096 29.5153C23.4598 29.7147 22.8276 30.2822 22.5526 30.9007C22.3081 31.4505 22.3084 32.4423 22.5532 32.993C22.7664 33.4723 23.2178 33.9544 23.6994 34.2169C24.2311 34.5068 25.3252 34.4976 25.8936 34.1985C27.6882 33.2544 27.6473 30.5711 25.8247 29.6828C25.3013 29.4277 24.5941 29.3592 24.096 29.5153ZM30.5128 29.5711C30.3198 29.6444 29.9908 29.8594 29.7819 30.0488C28.6675 31.0595 28.6676 32.8327 29.7824 33.8435C30.2892 34.3032 30.8535 34.4909 31.5687 34.4381C32.2714 34.3861 32.705 34.1607 33.2054 33.5874C34.0579 32.6106 34.0579 31.2814 33.2054 30.3046C32.9915 30.0595 32.6607 29.7764 32.4707 29.6757C32.0181 29.4358 31.0107 29.382 30.5128 29.5711ZM37.1856 29.5595C35.5131 30.1741 34.986 32.3767 36.2023 33.668C36.6781 34.1731 37.1443 34.3911 37.8501 34.4385C38.3684 34.4734 38.5143 34.4478 38.9545 34.2442C39.5297 33.9783 39.883 33.6366 40.1642 33.0743C40.3967 32.6095 40.4702 31.757 40.3241 31.2196C40.0541 30.2263 39.024 29.4308 38.0176 29.4383C37.7358 29.4403 37.3614 29.4949 37.1856 29.5595ZM5.73852 31.0025C6.33607 31.5777 6.33708 32.3134 5.74096 32.8871C5.45059 33.1665 4.88507 33.2273 4.46877 33.0237C3.63398 32.6156 3.62027 31.3054 4.44624 30.8711C4.83126 30.6686 5.45765 30.7323 5.73852 31.0025ZM12.2178 30.9033C12.5528 31.1136 12.7681 31.5294 12.7624 31.9547C12.742 33.4796 10.6032 33.5738 10.4236 32.0576C10.3114 31.1103 11.416 30.3996 12.2178 30.9033ZM18.78 30.9063C19.7729 31.53 19.4598 33.0237 18.3125 33.1373C17.8124 33.1867 17.4335 33.0082 17.1996 32.613C17.0007 32.2771 16.9849 31.6904 17.165 31.3316C17.4465 30.7709 18.2341 30.5634 18.78 30.9063ZM25.3654 30.8677C26.1353 31.2779 26.1353 32.6142 25.3654 33.0243C24.8104 33.3201 24.0969 33.101 23.7598 32.5314C23.1658 31.528 24.3336 30.318 25.3654 30.8677ZM32.0074 30.9301C32.7623 31.4497 32.7448 32.5044 31.9732 32.9891C31.2058 33.4711 30.2104 32.8822 30.2104 31.946C30.2104 30.9853 31.241 30.4027 32.0074 30.9301ZM38.521 30.8726C39.3475 31.2767 39.3546 32.6118 38.5323 33.0139C37.4714 33.5325 36.3624 32.3676 36.9583 31.3606C37.2976 30.7873 37.9376 30.5874 38.521 30.8726Z" fill="#B11227"/>
</svg>