<svg width="60" height="59" viewBox="0 0 60 59" fill="none" xmlns="http://www.w3.org/2000/svg">
<path fill-rule="evenodd" clip-rule="evenodd" d="M31.1818 1.67451C30.0767 2.59554 29.1378 3.45652 29.0955 3.58792C29.0531 3.71931 29.0474 3.93995 29.0827 4.07827C29.118 4.21659 29.9839 5.14801 31.007 6.14824C32.5695 7.67589 32.922 7.96615 33.2106 7.96304C33.604 7.95888 33.8643 7.79239 34.069 7.41391C34.2898 7.00587 34.1302 6.71157 33.1637 5.74413C32.6213 5.20135 32.3447 4.84932 32.4605 4.84932C32.9266 4.84932 35.5264 5.34129 36.4854 5.611C40.5899 6.76526 44.1919 8.77876 47.1946 11.5974C50.9751 15.1464 53.5703 19.7834 54.5573 24.7532C54.804 25.9958 54.9097 26.3137 55.1467 26.5269C55.6078 26.9418 56.1429 26.8294 56.4551 26.2521C56.5566 26.0645 56.5455 25.7636 56.4083 24.9821C55.4697 19.6333 53.0757 14.9698 49.2957 11.1272C46.6052 8.39209 43.8511 6.50305 40.4731 5.07573C38.2276 4.127 35.2726 3.34349 33.2382 3.15725C32.7992 3.11707 32.4401 3.04953 32.4401 3.00704C32.4401 2.96466 32.5852 2.82426 32.7625 2.69518C32.9398 2.5661 33.3883 2.18739 33.7592 1.85371C34.324 1.34534 34.4334 1.18393 34.4334 0.858906C34.4334 0.370511 34.0547 0 33.5557 0C33.257 0 32.8285 0.302159 31.1818 1.67451ZM23.9976 3.59473C20.2094 4.45167 16.0683 6.43285 13.1176 8.80001C7.83053 13.0414 4.19465 19.3137 3.36037 25.6321C3.12667 27.402 3.18812 27.3642 2.26449 26.3064C1.8229 25.8007 1.32995 25.3377 1.16908 25.2774C0.550903 25.046 -0.21267 25.802 0.0550261 26.3805C0.121276 26.5238 0.947113 27.5051 1.88997 28.5612C3.4462 30.3041 3.63967 30.4814 3.98546 30.4814C4.32199 30.4814 4.58792 30.2618 6.26727 28.5972C7.31261 27.561 8.168 26.6282 8.168 26.5245C8.168 26.0076 7.67282 25.5166 7.1515 25.5166C7.04984 25.5166 6.52477 25.9415 5.98445 26.4607C4.84331 27.5576 4.87532 27.6005 5.23436 25.4589C6.07051 20.4716 8.36042 15.9637 11.905 12.3273C15.2782 8.86686 19.6916 6.42996 24.4942 5.37616C25.2511 5.21013 25.9522 5.04329 26.0522 5.00553C26.3317 4.89989 26.5924 4.31393 26.5077 3.98163C26.3371 3.31231 25.6882 3.21221 23.9976 3.59473ZM27.3808 8.94895C16.0704 10.298 7.83628 20.4662 8.99548 31.6526C9.4271 35.8181 11.1618 39.8106 13.9445 43.0431C18.3731 48.1876 25.2551 50.9067 32.1052 50.2185C37.0824 49.7184 41.9854 47.3467 45.2882 43.8417C49.4435 39.4319 51.4871 33.7232 50.9905 27.9124C50.7506 25.1051 50.1669 23.0174 48.9164 20.4941C46.7751 16.1733 43.4771 12.9302 39.1237 10.8647C35.3975 9.09662 31.4885 8.45894 27.3808 8.94895ZM33.8778 10.9589C41.4834 12.5933 47.2126 18.2369 48.8662 25.7232C49.2544 27.4812 49.311 30.7805 48.9853 32.6639C47.6433 40.4229 41.7432 46.4711 33.8719 48.1568C32.0865 48.5391 28.7359 48.5949 26.8231 48.2741C18.9208 46.9489 12.8149 41.1582 11.075 33.3389C10.8455 32.3075 10.8117 31.822 10.8117 29.5577C10.8117 26.6894 10.9538 25.7253 11.701 23.5251C13.9204 16.9905 19.6962 12.0957 26.6508 10.8555C28.4245 10.5393 32.1746 10.5929 33.8778 10.9589ZM29.2827 12.4275C29.0668 12.6976 29.0396 12.8901 29.0396 14.1438C29.0396 15.3976 29.0668 15.5901 29.2827 15.8601C29.4701 16.0949 29.6291 16.1644 29.9777 16.1644C30.3263 16.1644 30.4853 16.0949 30.6727 15.8601C30.8885 15.5901 30.9157 15.3976 30.9157 14.1438C30.9157 12.8901 30.8885 12.6976 30.6727 12.4275C30.4853 12.1928 30.3263 12.1233 29.9777 12.1233C29.6291 12.1233 29.4701 12.1928 29.2827 12.4275ZM37.9198 14.6345C37.4989 15.0945 36.4268 17.0386 36.4268 17.342C36.4268 17.9796 37.2394 18.4259 37.7732 18.0814C38.1364 17.8471 39.4755 15.6358 39.4755 15.2705C39.4755 14.6069 38.3618 14.1517 37.9198 14.6345ZM20.5867 14.764C20.1345 15.1246 20.2285 15.6112 20.9989 16.8976C21.5382 17.7981 21.7628 18.0689 22.0781 18.1987C22.4245 18.3411 22.5201 18.3402 22.8124 18.1914C23.1669 18.0108 23.2941 17.803 23.2941 17.4041C23.2941 17.0896 21.9219 14.8054 21.6453 14.6597C21.3143 14.4851 20.883 14.5276 20.5867 14.764ZM29.2827 18.0851C29.0477 18.3791 29.0396 18.5187 29.0396 22.2771V26.1649L28.5937 26.3587C26.9442 27.0753 26.095 28.9452 26.6419 30.6571L26.8536 31.3202L24.191 33.874C21.8608 36.1086 21.5291 36.4709 21.5355 36.774C21.5492 37.4302 22.2266 37.892 22.7636 37.6109C22.9152 37.5316 24.1749 36.3869 25.5629 35.0672L28.0865 32.6676L28.8269 32.9146C30.524 33.4805 32.2971 32.7597 33.1672 31.15C33.5549 30.4329 33.5548 28.7979 33.1671 28.0804C32.7649 27.3365 32.1607 26.7369 31.5037 26.4297L30.9157 26.1549V22.2721C30.9157 18.5187 30.9076 18.3791 30.6727 18.0851C30.4853 17.8503 30.3263 17.7808 29.9777 17.7808C29.6291 17.7808 29.4701 17.8503 29.2827 18.0851ZM44.0485 20.0555C43.9517 20.0927 43.3793 20.4074 42.7762 20.7551C41.9129 21.2528 41.6445 21.4705 41.5135 21.7792C41.3688 22.1203 41.3697 22.2144 41.5209 22.5022C41.8709 23.1685 42.2812 23.1369 43.6864 22.3349C44.9423 21.6182 45.2222 21.3587 45.2184 20.9143C45.2135 20.3392 44.5597 19.8592 44.0485 20.0555ZM14.905 20.4889C14.5577 20.8308 14.5157 21.4653 14.8223 21.7373C15.2688 22.1334 17.2612 23.2074 17.5497 23.2074C18.1989 23.2074 18.6688 22.4016 18.3228 21.8816C18.0848 21.524 15.8391 20.2055 15.4681 20.2055C15.3167 20.2055 15.0633 20.3331 14.905 20.4889ZM30.8684 28.1324C31.255 28.3818 31.5723 28.8415 31.6725 29.2976C31.9082 30.3691 30.7865 31.4278 29.64 31.2161C29.0673 31.1102 28.3818 30.3971 28.2796 29.8007C28.0413 28.4121 29.6726 27.3609 30.8684 28.1324ZM12.5809 28.8734C12.1389 29.2157 12.1444 29.904 12.5921 30.2507C12.888 30.48 13.0242 30.4958 14.3976 30.4612C15.6603 30.4293 15.9201 30.3907 16.1295 30.2037C16.4994 29.8735 16.4671 29.1832 16.067 28.8734C15.7927 28.6608 15.5972 28.6341 14.324 28.6341C13.0507 28.6341 12.8552 28.6608 12.5809 28.8734ZM43.8884 28.8734C43.452 29.2113 43.452 29.9041 43.8884 30.2421C44.1627 30.4546 44.3581 30.4814 45.6314 30.4814C46.9047 30.4814 47.1002 30.4546 47.3744 30.2421C47.6128 30.0576 47.6834 29.901 47.6834 29.5577C47.6834 29.2145 47.6128 29.0579 47.3744 28.8734C47.1002 28.6608 46.9047 28.6341 45.6314 28.6341C44.3581 28.6341 44.1627 28.6608 43.8884 28.8734ZM53.814 30.6297C51.7578 32.6542 51.6661 32.8072 52.1477 33.41C52.3285 33.6365 52.497 33.7143 52.806 33.7143C53.1653 33.7143 53.3463 33.5946 54.146 32.8284C54.6545 32.341 55.0706 32.0101 55.0706 32.0929C55.0706 32.1758 54.9873 32.7692 54.8855 33.4119C53.2424 43.7874 45.2934 52.0037 34.9402 54.0277C33.9296 54.2254 33.1587 54.4368 33.0295 54.552C32.5288 54.9982 32.6871 55.7613 33.3304 56.0021C33.7637 56.1643 36.3684 55.6315 38.4627 54.9521C46.3914 52.3805 52.6742 46.2346 55.4892 38.2972C56.0534 36.7063 56.5629 34.6131 56.7368 33.1721C56.8157 32.5178 56.9177 31.9824 56.9636 31.9824C57.0094 31.9824 57.1601 32.1253 57.2983 32.2999C57.4366 32.4745 57.842 32.9161 58.1992 33.2813C58.7271 33.8209 58.9199 33.9452 59.228 33.9452C59.9254 33.9452 60.2357 33.1882 59.7972 32.5566C59.4024 31.9878 56.5954 28.8899 56.4121 28.8206C55.9075 28.63 55.6932 28.7792 53.814 30.6297ZM3.74157 32.7893C3.27465 33.0697 3.25155 33.4028 3.58831 35.0005C5.26027 42.9332 10.5515 49.7111 17.911 53.3477C20.468 54.6113 23.5064 55.5644 26.0483 55.9002C26.6617 55.9813 27.1635 56.0793 27.1635 56.1181C27.1635 56.1568 26.7381 56.4884 26.2183 56.8549C25.6984 57.2215 25.2234 57.6498 25.1628 57.8068C24.9309 58.4075 25.3527 59 26.0122 59C26.2413 59 26.9352 58.5563 28.4412 57.4472C29.6007 56.593 30.6055 55.7911 30.674 55.6651C30.9691 55.1219 30.8466 54.9388 28.9434 53.0779C27.4529 51.6206 27.0251 51.2642 26.7665 51.2642C26.3117 51.2642 26.0455 51.4331 25.8799 51.8266C25.6883 52.2822 25.8107 52.499 26.8542 53.5525L27.6912 54.3977L27.2808 54.3316C27.0551 54.2954 26.5186 54.2135 26.0888 54.1498C25.6588 54.086 24.6988 53.8826 23.9554 53.6977C16.7786 51.913 10.727 47.0672 7.45367 40.4843C6.5386 38.644 5.71476 36.279 5.3624 34.4809C5.09541 33.1187 4.99211 32.8553 4.65535 32.6778C4.33676 32.5099 4.17389 32.5298 3.74157 32.7893ZM41.8235 36.1361C41.4838 36.4705 41.4094 36.8984 41.6326 37.2338C41.8705 37.5914 44.1162 38.91 44.4872 38.91C44.9092 38.91 45.3383 38.4182 45.3383 37.9346C45.3383 37.5869 45.2643 37.4732 44.843 37.1727C44.0213 36.5865 42.6909 35.908 42.3631 35.908C42.1937 35.908 41.9509 36.0107 41.8235 36.1361ZM17.1566 36.1932C15.8165 36.8929 14.8463 37.5629 14.7765 37.8369C14.6699 38.2552 14.8584 38.6993 15.2298 38.9046C15.6261 39.1236 15.8892 39.0351 17.3165 38.2031C18.6199 37.4433 18.8664 37.0184 18.34 36.4383C17.9992 36.0629 17.5748 35.9749 17.1566 36.1932ZM22.1466 41.0533C21.7978 41.2938 20.4799 43.5012 20.4799 43.845C20.4799 44.2527 20.9796 44.683 21.4531 44.683C21.9399 44.683 22.0435 44.574 22.8745 43.1879C23.6909 41.8263 23.7272 41.3859 23.0511 41.0417C22.6302 40.8273 22.4712 40.8294 22.1466 41.0533ZM36.8319 41.1562C36.6736 41.3121 36.544 41.5566 36.544 41.6995C36.544 41.8425 36.8703 42.5179 37.2689 43.2005C38.0829 44.594 38.3768 44.8243 39.0109 44.5657C39.448 44.3874 39.6372 44.0646 39.5514 43.6429C39.4753 43.268 38.252 41.227 37.9777 41.0171C37.6709 40.7824 37.147 40.8459 36.8319 41.1562ZM29.2827 43.2553C29.0668 43.5254 29.0396 43.7178 29.0396 44.9716C29.0396 46.2254 29.0668 46.4179 29.2827 46.6879C29.6304 47.1232 30.3293 47.1178 30.6815 46.677C30.9143 46.3855 30.9304 46.2515 30.8952 44.8991C30.8629 43.6557 30.8236 43.4 30.6337 43.1938C30.2984 42.8295 29.5973 42.8614 29.2827 43.2553Z" fill="#B11227"/>
</svg>
