<svg width="60" height="59" viewBox="0 0 60 59" fill="none" xmlns="http://www.w3.org/2000/svg">
<path fill-rule="evenodd" clip-rule="evenodd" d="M29.4975 0.156261C29.3823 0.242113 29.2373 0.486531 29.1752 0.699143C29.0051 1.28236 29.0409 9.86107 29.2155 10.3615C29.4856 11.1354 30.5144 11.1354 30.7845 10.3615C30.9591 9.86107 30.9949 1.28236 30.8248 0.699143C30.6916 0.242574 30.4054 0 30 0C29.8389 0 29.6128 0.0702946 29.4975 0.156261ZM20.6611 7.3686C20.3721 7.48315 20.1554 7.8193 20.1554 8.15302C20.1554 8.53803 21.6683 12.0243 21.9276 12.2366C22.0629 12.3475 22.3021 12.4382 22.4591 12.4382C22.8085 12.4382 23.3198 11.9594 23.3198 11.6321C23.3198 11.4101 22.6472 9.7025 21.9522 8.15994C21.7685 7.75246 21.5527 7.46344 21.371 7.38209C21.0379 7.23285 21.0055 7.23216 20.6611 7.3686ZM38.5947 7.38635C38.4551 7.45411 38.2083 7.80178 38.0462 8.1589C37.3755 9.63635 36.6802 11.4031 36.6802 11.6298C36.6802 11.9591 37.1904 12.4382 37.5409 12.4382C37.6979 12.4382 37.9365 12.3475 38.0713 12.2366C38.3423 12.0133 39.8446 8.5189 39.8446 8.11131C39.8446 7.54699 39.1243 7.12914 38.5947 7.38635ZM10.1298 9.95545C9.5343 10.5409 9.59454 10.6279 12.7395 13.7293C15.4598 16.4119 15.663 16.5868 16.0615 16.5868C16.5905 16.5868 16.8739 16.3011 16.8739 15.768C16.8739 15.4024 16.6423 15.1435 13.9679 12.5215C10.8136 9.42916 10.7251 9.36993 10.1298 9.95545ZM46.0321 12.5215C43.3039 15.1963 43.1261 15.3961 43.1261 15.7879C43.1261 16.3081 43.4166 16.5868 43.9588 16.5868C44.3307 16.5868 44.5939 16.3591 47.2605 13.7293C50.4055 10.6279 50.4657 10.5409 49.8702 9.95545C49.2749 9.36993 49.1864 9.42916 46.0321 12.5215ZM28.242 13.9417C24.5173 14.3948 21.4505 15.8673 18.7963 18.477C15.6675 21.5536 14.1366 25.1727 14.1366 29.4933C14.1366 32.1151 14.6212 34.1744 15.7676 36.4236C16.3884 37.6417 17.3928 39.1299 17.7053 39.2942C18.2648 39.5887 18.9835 39.1788 18.9835 38.5652C18.9835 38.385 18.7187 37.878 18.3365 37.3261C16.655 34.8978 15.8913 32.4515 15.8913 29.4933C15.8913 25.6651 17.2853 22.3634 20.0354 19.6772C22.8098 16.9674 26.1181 15.6206 30 15.6206C33.0085 15.6206 35.4964 16.3715 37.966 18.0249C39.059 18.7567 39.4597 18.8279 39.836 18.3574C40.3209 17.7514 40.1518 17.4006 38.9957 16.6148C37.2169 15.4056 34.8877 14.4582 32.8233 14.1041C31.5283 13.8819 29.3641 13.8053 28.242 13.9417ZM41.2713 19.8496C40.8737 20.2658 40.9539 20.6359 41.6635 21.6605C43.362 24.1134 44.1104 26.535 44.102 29.5509C44.091 33.4246 42.56 36.933 39.7386 39.5502C37.0025 42.088 33.761 43.3576 30 43.3642C26.9599 43.3695 24.2985 42.5433 21.8338 40.8292C21.0018 40.2507 20.5623 40.1879 20.1758 40.5923C19.9044 40.8764 19.8505 41.2483 20.0324 41.5824C20.1995 41.8896 21.713 42.8773 22.9519 43.4877C25.2393 44.6148 27.3336 45.0913 30 45.0913C34.2731 45.0913 37.9351 43.6319 41.0346 40.6934C44.1949 37.6974 45.8657 33.8225 45.8641 29.4933C45.863 26.8705 45.3782 24.811 44.2324 22.5631C43.6117 21.3449 42.6072 19.8567 42.2947 19.6924C41.9437 19.5077 41.5387 19.5699 41.2713 19.8496ZM7.81396 19.9414C7.49073 20.1263 7.34622 20.6053 7.50209 20.9753C7.64297 21.3096 7.8831 21.4326 10.2767 22.3961C10.9993 22.6868 11.7005 22.9248 11.835 22.9248C12.1678 22.9248 12.6548 22.4221 12.6548 22.0785C12.6548 21.5789 12.2769 21.3268 10.3846 20.5636C8.49206 19.8003 8.18899 19.7269 7.81396 19.9414ZM49.572 20.5739C47.7184 21.3308 47.3452 21.583 47.3452 22.0785C47.3452 22.4232 47.8325 22.9248 48.1673 22.9248C48.3031 22.9248 49.0043 22.6879 49.7255 22.3982C52.0812 21.4523 52.3565 21.311 52.4979 20.9753C52.7427 20.394 52.3112 19.8005 51.6599 19.8226C51.5106 19.8278 50.5711 20.1658 49.572 20.5739ZM21.5973 24.663C20.9805 24.8874 20.9569 25.0479 20.9973 28.7647C21.0344 32.1964 21.0349 32.2023 21.3406 32.8352C21.7118 33.6035 22.3578 34.2548 23.144 34.6533C23.928 35.0507 25.4592 35.1456 26.3988 34.8551C27.338 34.5646 28.0897 33.9491 28.5844 33.0657L29.0038 32.3166L29.041 28.8088C29.0811 25.0266 29.06 24.8707 28.4807 24.6721C28.1068 24.5439 27.4969 24.7552 27.3806 25.0533C27.3387 25.1606 27.3045 26.7057 27.3045 28.4868C27.3045 31.5392 27.2904 31.7539 27.0588 32.2242C26.7093 32.934 26.0452 33.2961 25.0929 33.2961C24.2473 33.2961 23.7339 33.1098 23.3064 32.6477C22.7783 32.0769 22.7338 31.7446 22.7338 28.3738C22.7338 26.5333 22.6858 25.1264 22.619 25.0036C22.4689 24.7278 21.9212 24.5452 21.5973 24.663ZM37.7614 24.6278C37.6148 24.6511 37.4161 24.7883 37.3199 24.9327C37.2236 25.0772 36.6684 26.5347 36.0862 28.1718C35.5039 29.8088 34.9855 31.222 34.9342 31.3121C34.8736 31.4185 34.5202 30.5533 33.9255 28.8425C32.4405 24.5702 32.4826 24.6534 31.803 24.6534C31.3636 24.6534 30.9376 25.0182 30.9376 25.3943C30.9376 25.8154 34.014 34.4969 34.2584 34.7654C34.4085 34.9303 34.6287 35.0247 34.8637 35.0247C35.0982 35.0247 35.3197 34.9301 35.4704 34.7654C35.6016 34.6222 36.4232 32.4831 37.306 29.9869C38.5648 26.4272 38.8822 25.4107 38.8006 25.1997C38.6298 24.7582 38.2515 24.55 37.7614 24.6278ZM0.236446 28.9389C-0.200583 29.4001 -0.0102549 30.0561 0.629994 30.2955C1.08214 30.4645 10.035 30.4576 10.5302 30.2879C11.1506 30.0753 11.3429 29.3557 10.8968 28.9171C10.6696 28.6937 10.5062 28.6867 5.56892 28.6867C0.480099 28.6867 0.475177 28.6869 0.236446 28.9389ZM49.1032 28.9171C48.6571 29.3557 48.8494 30.0753 49.4698 30.2879C49.965 30.4576 58.9179 30.4645 59.37 30.2955C60.0103 30.0561 60.2006 29.4001 59.7636 28.9389C59.5248 28.6869 59.5199 28.6867 54.4311 28.6867C49.4938 28.6867 49.3304 28.6937 49.1032 28.9171ZM9.72486 36.8217C8.72575 37.2352 7.84724 37.6 7.77259 37.6326C7.69782 37.6651 7.57687 37.8341 7.5035 38.008C7.26629 38.5712 7.67602 39.1732 8.29669 39.1732C8.68825 39.1732 12.2338 37.6856 12.4497 37.4307C12.5626 37.2976 12.6548 37.0624 12.6548 36.9081C12.6548 36.5518 12.1623 36.0606 11.8104 36.0659C11.6625 36.0681 10.724 36.4081 9.72486 36.8217ZM47.6329 36.3447C47.2949 36.677 47.2633 37.0925 47.5503 37.4296C47.7652 37.6819 51.3209 39.1732 51.7078 39.1732C52.3222 39.1732 52.7329 38.5693 52.4979 38.0113C52.3565 37.6756 52.0812 37.5343 49.7255 36.5885C49.0043 36.2988 48.3031 36.0618 48.1673 36.0618C48.0316 36.0618 47.7911 36.1892 47.6329 36.3447ZM12.7395 45.2573C9.59454 48.3588 9.5343 48.4458 10.1298 49.0312C10.7251 49.6167 10.8136 49.5575 13.9679 46.4651C16.6961 43.7903 16.8739 43.5905 16.8739 43.1987C16.8739 42.6785 16.5834 42.3999 16.0412 42.3999C15.6693 42.3999 15.4061 42.6276 12.7395 45.2573ZM43.3201 42.6106C43.2134 42.7266 43.1261 43.0001 43.1261 43.2186C43.1261 43.5843 43.3577 43.8431 46.0321 46.4651C49.1864 49.5575 49.2749 49.6167 49.8702 49.0312C50.4657 48.4458 50.4055 48.3588 47.2605 45.2573C44.5402 42.5747 44.337 42.3999 43.9385 42.3999C43.6761 42.3999 43.44 42.4803 43.3201 42.6106ZM21.9276 46.7501C21.6683 46.9623 20.1554 50.4486 20.1554 50.8336C20.1554 51.4421 20.7677 51.8468 21.3371 51.6149C21.6771 51.4764 21.8022 51.2403 22.7821 48.8867C23.0777 48.1762 23.3198 47.4868 23.3198 47.3545C23.3198 47.0272 22.8085 46.5484 22.4591 46.5484C22.3021 46.5484 22.0629 46.6392 21.9276 46.7501ZM36.968 46.8313C36.8097 46.9869 36.6802 47.2223 36.6802 47.3545C36.6802 47.4868 36.9223 48.1762 37.218 48.8867C38.1978 51.2403 38.3229 51.4764 38.6629 51.6149C39.2323 51.8468 39.8446 51.4421 39.8446 50.8336C39.8446 50.4486 38.3317 46.9623 38.0724 46.7501C37.728 46.4679 37.3058 46.499 36.968 46.8313ZM29.5065 48.1684C29.3963 48.2317 29.2516 48.4763 29.1849 48.7123C29.029 49.2642 29.0205 57.7568 29.1752 58.2875C29.4523 59.2375 30.5477 59.2375 30.8248 58.2875C30.98 57.7553 30.971 49.2641 30.8146 48.7105C30.6439 48.1062 30.0469 47.8587 29.5065 48.1684Z" fill="#B11227"/>
</svg>
